<?xml version="1.0" encoding="UTF-8"?>
<svg width="140px" height="90px" viewBox="0 0 140 90" version="1.1" xmlns="http://www.w3.org/2000/svg" xmlns:xlink="http://www.w3.org/1999/xlink">
    <!-- Generator: Sketch 55.2 (78181) - https://sketchapp.com -->
    <title>SIC-video-thumbnail-logo</title>
    <desc>Created with Sketch.</desc>
    <defs>
        <polygon id="path-1" points="0.00742526519 0.0125930137 12.5239473 0.0125930137 12.5239473 18.9924 0.00742526519 18.9924"></polygon>
    </defs>
    <g id="Winners" stroke="none" stroke-width="1" fill="none" fill-rule="evenodd">
        <g id="Innovator's-Cup-Homepage---Winners" transform="translate(-67.000000, -580.000000)">
            <g id="SIC-video-thumbnail-logo" transform="translate(67.000000, 580.000000)">
                <rect id="bg" fill="#080808" x="0" y="0" width="140" height="90"></rect>
                <g id="8vc-innovate-logo-white" transform="translate(13.000000, 32.000000)">
                    <path d="M68.4053237,5.44616082 C68.4053237,6.4165135 67.5795523,7.0925789 66.7144586,7.0925789 C66.0145191,7.0925789 65.1101028,6.61535627 65.031458,5.50183679 L65.2673926,5.50183679 C65.4089534,6.63126369 66.2583182,6.87782872 66.7065941,6.87782872 C67.4379915,6.87782872 68.169389,6.32106898 68.169389,5.47797566 C68.169389,4.39627103 67.2413793,4.16561342 66.6830006,4.02244663 C66.1718088,3.88723355 65.1730188,3.64862223 65.1572898,2.54305647 L65.1572898,2.51919534 C65.1572898,1.55679636 65.9044162,1.00799033 66.738052,1.00799033 C67.4222626,1.00799033 68.1143376,1.41362957 68.2401694,2.37602855 L68.0042347,2.37602855 C67.9177253,1.90675962 67.6581972,1.22274052 66.722323,1.22274052 C65.9830611,1.22274052 65.3932244,1.73177799 65.3932244,2.50328791 C65.38536,3.43387205 66.1560799,3.65657594 66.9582577,3.87132613 C67.2413793,3.94290952 68.4053237,4.16561342 68.4053237,5.44616082 Z M75.4283122,4.04630776 C75.4283122,5.8120315 74.0756201,7.0925789 72.4083485,7.0925789 C70.7410768,7.0925789 69.3883848,5.8120315 69.3883848,4.04630776 C69.3883848,2.28058402 70.7410768,1.00003662 72.4083485,1.00003662 C74.0756201,1.00003662 75.4283122,2.28058402 75.4283122,4.04630776 Z M75.1923775,4.04630776 C75.1923775,2.4157971 73.9497883,1.21478681 72.4083485,1.21478681 C70.8669087,1.21478681 69.6243194,2.4157971 69.6243194,4.04630776 C69.6243194,5.67681842 70.8669087,6.87782872 72.4083485,6.87782872 C73.9497883,6.87782872 75.1923775,5.67681842 75.1923775,4.04630776 Z M81.9637024,2.4157971 L81.6884452,2.4157971 C81.4682396,2.10560239 80.7053841,1.21478681 79.415608,1.21478681 C77.8741682,1.20683309 76.6315789,2.4157971 76.6315789,4.04630776 C76.6315789,5.67681842 77.8741682,6.87782872 79.415608,6.87782872 C80.7761645,6.87782872 81.523291,5.93929087 81.6884452,5.70863327 L81.9558379,5.70863327 C81.5626134,6.38469866 80.6346037,7.0925789 79.415608,7.0925789 C77.7483364,7.0925789 76.3956443,5.8120315 76.3956443,4.04630776 C76.3956443,2.28058402 77.7483364,0.99208291 79.415608,1 C80.6581972,1 81.53902,1.74768541 81.9637024,2.4157971 Z M83.4107683,6.98918066 L83.1748336,6.98918066 L83.1748336,1.10343486 L83.4107683,1.10343486 L83.4107683,6.98918066 Z M89.6866304,6.98918066 L89.4349667,6.98918066 L88.5620085,4.93712334 L85.5184513,4.93712334 L84.645493,6.98918066 L84.3938294,6.98918066 L86.8868724,1.10343486 L87.1935874,1.10343486 L89.6866304,6.98918066 Z M88.4597701,4.72237316 L87.0362976,1.32613875 L85.6206897,4.72237316 L88.4597701,4.72237316 Z M93.3593466,6.98918066 L90.661827,6.98918066 L90.661827,1.10343486 L90.8977616,1.10343486 L90.8977616,6.77443048 L93.3593466,6.77443048 L93.3593466,6.98918066 Z M65.5190563,14.9428912 L65.2831216,14.9428912 L65.2831216,9.05714541 L65.5190563,9.05714541 L65.5190563,14.9428912 Z M71.645493,14.9428912 L71.3466425,14.9428912 L67.3042952,9.29575672 L67.2885662,9.29575672 L67.2885662,14.9428912 L67.0526316,14.9428912 L67.0526316,9.05714541 L67.4065336,9.05714541 L71.3938294,14.6247428 L71.4095584,14.6247428 L71.4095584,9.05714541 L71.645493,9.05714541 L71.645493,14.9428912 Z M77.7640653,14.9428912 L77.4652148,14.9428912 L73.4228675,9.29575672 L73.4071385,9.29575672 L73.4071385,14.9428912 L73.1712039,14.9428912 L73.1712039,9.05714541 L73.5251059,9.05714541 L77.5124017,14.6247428 L77.5281307,14.6247428 L77.5281307,9.05714541 L77.7640653,9.05714541 L77.7640653,14.9428912 Z M85.046582,12.0000183 C85.046582,13.7657421 83.6938899,15.0462895 82.0266183,15.0462895 C80.3593466,15.0462895 79.0066546,13.7657421 79.0066546,12.0000183 C79.0066546,10.2342946 80.3593466,8.95374717 82.0266183,8.95374717 C83.6938899,8.95374717 85.046582,10.2342946 85.046582,12.0000183 Z M84.8106473,12.0000183 C84.8106473,10.3695076 83.5680581,9.16849735 82.0266183,9.16849735 C80.4851785,9.16849735 79.2425892,10.3695076 79.2425892,12.0000183 C79.2425892,13.630529 80.4851785,14.8315393 82.0266183,14.8315393 C83.5680581,14.8315393 84.8106473,13.630529 84.8106473,12.0000183 Z M90.7168784,9.05714541 L88.2316999,14.9428912 L88.0665457,14.9428912 L85.5892317,9.05714541 L85.8566243,9.05714541 L88.153055,14.5452057 L90.4573503,9.05714541 L90.7168784,9.05714541 Z M95.7265578,14.9428912 L95.4748941,14.9428912 L94.6019359,12.8908339 L91.5583787,12.8908339 L90.6854204,14.9428912 L90.4337568,14.9428912 L92.9267998,9.05714541 L93.2335148,9.05714541 L95.7265578,14.9428912 Z M94.4996975,12.6760837 L93.076225,9.2798493 L91.6606171,12.6760837 L94.4996975,12.6760837 Z M98.8959468,9.27189559 L97.3151845,9.27189559 L97.3151845,14.9428912 L97.0792498,14.9428912 L97.0792498,9.27189559 L95.4984876,9.27189559 L95.4984876,9.05714541 L98.8959468,9.05714541 L98.8959468,9.27189559 Z M105.462795,12.0000183 C105.462795,13.7657421 104.110103,15.0462895 102.442831,15.0462895 C100.77556,15.0462895 99.4228675,13.7657421 99.4228675,12.0000183 C99.4228675,10.2342946 100.77556,8.95374717 102.442831,8.95374717 C104.110103,8.95374717 105.462795,10.2342946 105.462795,12.0000183 Z M105.22686,12.0000183 C105.22686,10.3695076 103.984271,9.16849735 102.442831,9.16849735 C100.901391,9.16849735 99.6588022,10.3695076 99.6588022,12.0000183 C99.6588022,13.630529 100.901391,14.8315393 102.442831,14.8315393 C103.984271,14.8315393 105.22686,13.630529 105.22686,12.0000183 Z M110.354507,10.91036 C110.354507,11.6421013 109.882638,12.6760837 108.640048,12.7158523 L108.411978,12.723806 L109.977011,14.9428912 L109.678161,14.9428912 L107.971567,12.5090558 L108.333333,12.5090558 C108.883848,12.5090558 109.23775,12.4613335 109.623109,12.1352314 C109.99274,11.7454996 110.118572,11.3398603 110.118572,10.8785451 C110.118572,10.3695076 109.874773,9.8047942 109.426497,9.51050691 C109.072595,9.2798493 108.647913,9.27189559 107.963702,9.27189559 L106.870538,9.27189559 L106.870538,14.9428912 L106.634604,14.9428912 L106.634604,9.05714541 L107.963702,9.05714541 C108.868119,9.05714541 109.222021,9.14463622 109.513007,9.30371043 C109.977011,9.55027546 110.338778,10.1865723 110.354507,10.8705914 L110.354507,10.91036 Z M112.249849,9.05714541 L111.746521,10.2820168 L111.486993,10.2820168 L111.990321,9.05714541 L112.249849,9.05714541 Z M117,13.3998714 C117,14.3702241 116.174229,15.0462895 115.309135,15.0462895 C114.609195,15.0462895 113.704779,14.5690668 113.626134,13.4555473 L113.862069,13.4555473 C114.00363,14.5849742 114.852995,14.8315393 115.30127,14.8315393 C116.032668,14.8315393 116.764065,14.2747795 116.764065,13.4316862 C116.764065,12.3499816 115.836056,12.119324 115.277677,11.9761572 C114.766485,11.8409441 113.767695,11.6023328 113.751966,10.496767 L113.751966,10.4729059 C113.751966,9.51050691 114.499093,8.96170088 115.332728,8.96170088 C116.016939,8.96170088 116.709014,9.36734012 116.834846,10.3297391 L116.598911,10.3297391 C116.512402,9.86047017 116.252874,9.17645107 115.316999,9.17645107 C114.577737,9.17645107 113.987901,9.68548854 113.987901,10.4569985 C113.980036,11.3875826 114.750756,11.6102865 115.552934,11.8250367 C115.836056,11.8966201 117,12.119324 117,13.3998714 Z M70.5680581,18.3232182 L70.292801,18.3232182 C70.0725953,18.0130235 69.3097399,17.1222079 68.0199637,17.1222079 C66.4785239,17.1142542 65.2359347,18.3232182 65.2359347,19.9537289 C65.2359347,21.5842395 66.4785239,22.7852498 68.0199637,22.7852498 C69.3805203,22.7852498 70.1276467,21.846712 70.292801,21.6160544 L70.5601936,21.6160544 C70.1669691,22.2921198 69.2389595,23 68.0199637,23 C66.3526921,23 65,21.7194526 65,19.9537289 C65,18.1880051 66.3526921,16.899504 68.0199637,16.9074211 C69.2625529,16.9074211 70.1433757,17.6551065 70.5680581,18.3232182 Z M75.3339383,20.828637 C75.3339383,21.3615356 75.3182093,22.148953 74.6339988,22.642083 C74.3351482,22.8568332 73.9497883,23 73.5486993,23 C73.1554749,23 72.7701149,22.8568332 72.4712644,22.642083 C71.7870538,22.148953 71.7713249,21.3615356 71.7713249,20.828637 L71.7713249,17.010856 L72.0072595,17.010856 L72.0072595,20.828637 C72.0072595,21.4013042 72.0072595,21.7671749 72.369026,22.2443975 C72.6206897,22.5784533 73.1004235,22.7852498 73.5644283,22.7852498 C74.0048397,22.7852498 74.4845735,22.5784533 74.7362371,22.2443975 C75.0980036,21.7671749 75.0980036,21.4013042 75.0980036,20.828637 L75.0980036,17.010856 L75.3339383,17.010856 L75.3339383,20.828637 Z M80.1705989,18.6811352 C80.1705989,19.2140338 79.9267998,19.7469324 79.5807622,20.0014511 C79.1954023,20.2877847 78.8021779,20.3514144 78.1258318,20.3514144 L77.0090744,20.3514144 L77.0090744,22.8966018 L76.7731397,22.8966018 L76.7731397,17.010856 L78.1258318,17.010856 C78.8179068,17.010856 79.1954023,17.0744856 79.5807622,17.3608192 C79.9267998,17.615338 80.1705989,18.1482366 80.1705989,18.6811352 Z M79.9346642,18.6890889 C79.9346642,18.2277737 79.738052,17.7585047 79.4549304,17.5517083 C79.1246219,17.3051432 78.7943134,17.2256061 78.1336963,17.2256061 L77.0090744,17.2256061 L77.0090744,20.1366642 L78.1336963,20.1366642 C78.7864489,20.1366642 79.1246219,20.0571271 79.4549304,19.8105621 C79.738052,19.6037656 79.9346642,19.1344967 79.9346642,18.6890889 Z" id="SOCIAL-INNOVATOR’S-C" fill="#E7E7E7"></path>
                    <path d="M56.5,0 L56.5,23" id="Line-3" stroke="#636363" stroke-linecap="square"></path>
                    <g id="8vc-logo-white" transform="translate(0.000000, 2.000000)">
                        <g id="Group-3">
                            <mask id="mask-2" fill="white">
                                <use xlink:href="#path-1"></use>
                            </mask>
                            <g id="Clip-2"></g>
                            <path d="M6.2495982,9.48733333 C10.0488589,9.48733333 11.7814208,11.78 11.7814208,13.8953333 C11.7814208,16.8846667 8.91031823,18.2526667 6.2495982,18.2526667 C2.45033751,18.2526667 0.717775635,15.998 0.717775635,13.8953333 C0.717775635,11.78 2.45033751,9.48733333 6.2495982,9.48733333 Z M10.9151398,4.712 C10.9151398,6.726 9.46721311,8.76533333 6.2495982,8.76533333 C3.99726776,8.76533333 1.58405657,7.51133333 1.58405657,4.75 C1.58405657,2.00133333 3.99726776,0.76 6.2495982,0.76 C8.50192864,0.734666667 10.9151398,1.976 10.9151398,4.712 Z M8.51430408,9.09466667 C10.4572485,8.436 11.6700418,6.77666667 11.6700418,4.73733333 C11.6700418,2.45733333 9.97460624,0.0125930137 6.26197364,0.0125930137 C3.58887817,6.45733467e-14 0.891031823,1.62133333 0.866280939,4.712 C0.866280939,6.574 1.95531983,8.208 3.70025715,8.968 L4.02201864,9.044 C1.57168113,9.70266667 0,11.6026667 0,13.87 C0,16.34 1.95531983,19 6.2495982,19 C10.556252,19 12.5239473,16.34 12.5239473,13.8826667 C12.5239473,11.5646667 11.0265188,9.77866667 8.51430408,9.09466667 L8.51430408,9.09466667 Z" id="Fill-1" fill="#FFFFFE" mask="url(#mask-2)"></path>
                        </g>
                        <polyline id="Fill-4" fill="#FFFFFE" points="21.8094934 17.3928657 28.6829314 0.791666667 29.4535519 0.791666667 22.0456513 18.6041667 21.5484767 18.6041667 14.1530055 0.791666667 14.9484847 0.791666667 21.8094934 17.3928657"></polyline>
                        <path d="M46.6420622,14.4739223 C45.4856522,16.4886757 42.7422539,18.6041667 39.1376992,18.6041667 C34.2168054,18.6041667 30.2185792,14.7761353 30.2185792,9.5 C30.2185792,4.22386468 34.2168054,0.395833333 39.1376992,0.395833333 C42.8037651,0.42101775 45.4118388,2.62465422 46.6666667,4.62681535 L45.8547192,4.62681535 C45.2027008,3.69499193 42.9513919,1.06322038 39.1500014,1.03803596 C34.5981747,1.03803596 30.9321088,4.62681535 30.9321088,9.5 C30.9321088,14.3731846 34.5981747,17.961964 39.1500014,17.961964 C43.1728321,17.961964 45.3749321,15.1539016 45.8547192,14.4739223 L46.6420622,14.4739223" id="Fill-5" fill="#FFFFFE"></path>
                    </g>
                </g>
                <circle id="Oval" stroke-opacity="0.7" stroke="#FFFFFF" stroke-width="5" cx="71" cy="43" r="25"></circle>
                <polygon id="Triangle" fill-opacity="0.75" fill="#D8D8D8" transform="translate(75.000000, 43.500000) rotate(-270.000000) translate(-75.000000, -43.500000) " points="75 35 88 52 62 52"></polygon>
            </g>
        </g>
    </g>
</svg>