<?xml version="1.0" encoding="UTF-8"?>
<svg width="585px" height="12px" viewBox="0 0 585 12" version="1.1" xmlns="http://www.w3.org/2000/svg" xmlns:xlink="http://www.w3.org/1999/xlink">
    <!-- Generator: Sketch 51.2 (57519) - http://www.bohemiancoding.com/sketch -->
    <title>line</title>
    <desc>Created with Sketch.</desc>
    <defs></defs>
    <g id="Design" stroke="none" stroke-width="1" fill="none" fill-rule="evenodd">
        <g id="About" transform="translate(-428.000000, -807.000000)" stroke="#686868">
            <path d="M428,812.736513 C462.686,812.735513 497.372,812.733513 532.057,812.731513 C532.512,812.078513 531.512,812.078513 531.512,811.078513 C541.512,807.078513 551.512,808.078513 561.512,811.078513 C569.512,812.078513 576.512,813.078513 584.714,813.070513 C587.526,812.853513 590.374,812.728513 593.804,812.728513 C621.248,812.726513 648.69,812.725513 676.134,812.723513 C679.828,812.723513 683.102,812.895513 685.721,813.035513 C700.512,815.078513 716.512,817.078513 731.547,812.720513 C743.243,812.720513 754.939,812.719513 766.635,812.718513 L778.33,812.718513 C804.512,806.078513 829.512,806.078513 855.512,815.078513 C873.512,821.078513 890.512,815.078513 907.113,812.824513 C910.891,812.719513 914.78,812.712513 918.678,812.711513 C949.867,812.710513 981.055,812.708513 1012.244,812.706513" id="line"></path>
        </g>
    </g>
</svg>