<?xml version="1.0" encoding="UTF-8"?>
<svg width="360px" height="134px" viewBox="0 0 360 134" version="1.1" xmlns="http://www.w3.org/2000/svg" xmlns:xlink="http://www.w3.org/1999/xlink">
    <!-- Generator: Sketch 51.2 (57519) - http://www.bohemiancoding.com/sketch -->
    <title>icon-handshake</title>
    <desc>Created with Sketch.</desc>
    <defs></defs>
    <g id="Design" stroke="none" stroke-width="1" fill="none" fill-rule="evenodd">
        <g id="Innovator's-Cup-Homepage" transform="translate(-945.000000, -1752.000000)" stroke="#7202E4">
            <g id="Benefits" transform="translate(0.000000, 1623.000000)">
                <g id="Group-2" transform="translate(945.000000, 130.000000)">
                    <path d="M0,71.8902376 C4.52297895,74.2833481 13.162108,74.4987281 18.4508824,74.7129115 C28.1908423,75.1077747 37.4761113,71.7693855 46.3186548,68.1210885 C56.6568923,63.8493861 65.978058,57.5064466 75.9333979,52.4210867 C82.7513698,48.8876589 89.8660875,45.9620813 97.1961851,43.6742676 C106.469489,40.7798004 115.91031,40.5392928 125.00413,43.9147752 C132.566359,46.7266801 137.113269,51.0941069 145.644708,48.8565485 C148.695924,48.0416944 151.830899,46.810439 154.882115,46.1762647 C159.931578,45.1220995 160.577718,46.4143792 158.029055,50.5676225 C156.653017,52.8279155 153.314628,56.7538133 154.247941,59.5417871 C155.300909,62.6647964 159.943544,63.0464975 162.623828,62.7473587 C169.623676,61.9935289 171.322784,53.9419084 178.932876,55.8563969 C186.542968,57.7708853 190.718946,68.490824 196.282928,73.7197706 C200.399078,77.5978062 205.783576,79.4405014 210.330487,82.8375218 C214.346126,85.9018999 218.148779,89.2355029 221.709727,92.8167928 C226.077154,97.1124262 230.085614,108.002276 222.595178,110.872812 C220.785987,111.438783 218.875088,111.605104 216.995299,111.3634 C213.405634,105.81258 210.83304,101.277635 205.185299,97.0047363 C202.337497,94.8509368 192.406088,88.2950104 195.888064,83.8426282 C198.173485,84.3930437 198.747831,89.4784036 199.980283,91.3462264 C201.811013,94.1090725 204.766504,96.262872 207.159615,98.525558 C210.988592,102.115224 217.426059,106.590341 216.217538,112.728669 C215.367984,117.036268 210.462108,121.870351 205.998956,119.501172 C203.318673,118.065306 201.212735,113.123532 199.322178,110.765122 C197.614694,108.716619 195.724136,106.826062 193.674437,105.118578 C192.621468,104.221161 187.428419,100.954565 187.691661,99.4588711 C188.421559,94.898799 193.135987,102.916916 193.758196,103.633653 C197.611104,108.050138 202.84005,112.105264 205.376748,117.359338 C208.128825,123.066907 203.988744,128.007483 198.005967,126.548883 C193.399229,125.352327 190.120668,120.566106 187.476281,116.97644 C184.831894,113.386775 181.601194,111.077423 179.626878,107.23648 C178.047425,104.136206 177.867942,101.253704 174.038965,100.655426 C170.640748,100.128942 169.097192,102.617777 166.081872,102.821191 C165.986148,94.0612103 157.885469,92.052194 152.225762,98.1414638 C150.383067,100.128942 149.6771,104.327655 146.518194,103.263917 C143.359288,102.197786 144.412256,96.8970463 141.528558,94.7444434 C137.340615,91.608272 130.328801,90.7706833 125.470786,89.2881513 C119.70339,87.5172495 115.060755,83.4956272 108.946358,82.0358298 C103.896895,80.8392745 98.5722237,81.6409665 93.534726,82.1554853 C88.4972283,82.6712006 83.3161439,81.7737842 78.338474,82.1554853 C71.0131626,82.8183769 63.6411855,82.7860699 56.3218569,82.0609574 C47.4194856,81.0905511 38.9837709,80.396549 30.9907817,76.078181 C25.630214,73.2172174 20.1380253,66.109679 24.0746922,59.7691326 C29.0523621,51.7510157 42.0230213,55.6398204 48.2810054,58.8346229 C59.5166595,64.5074915 69.9984837,71.9979275 81.8443809,76.4371476 C96.5021831,81.8814741 114.51034,78.9606827 127.756207,88.0437338 C134.09795,92.399195 130.376663,96.0953543 132.757808,102.030268 C133.571466,104.040481 135.725265,106.937342 138.034617,107.212549 C140.008933,107.45186 141.444799,105.619934 143.395184,105.667796 C143.969531,108.492863 141.492661,110.705294 142.354181,113.673948 C143.215701,116.640208 147.475438,119.535872 150.574516,119.154171 C153.888974,118.73418 157.442743,114.774779 160.146958,112.920118 C162.851173,111.064261 167.517739,108.803968 166.692116,104.734483 C163.628934,104.98576 161.905894,108.874565 158.316229,107.773734 C155.923118,107.067766 152.847971,103.729377 154.080423,101.384129 C156.198326,97.3648994 158.998265,101.384129 160.745236,102.83196 C161.834101,103.789205 164.215246,104.5203 164.873352,105.775486 C167.122875,110.011292 155.43253,114.679054 154.451355,119.66869 C153.601801,123.940392 157.095742,125.495914 160.721305,126.656573 C165.794699,128.295853 167.685256,126.034364 170.856128,122.575123 C173.536412,119.656724 181.626322,113.29105 179.004669,109.413014 C177.225392,107.394426 175.156548,105.648652 172.866341,104.23193 C170.209988,103.394341 166.883564,107.296308 167.386118,109.915568 C168.032257,113.505234 172.447546,111.795356 174.936381,112.859094 C176.228661,113.620103 177.291202,114.714951 178.011528,116.031162 C180.727709,119.787149 183.479786,128.569864 177.257699,130.593239 C174.661174,131.442794 169.922815,130.364697 168.881812,127.482196 C167.840809,124.598498 172.016787,120.636703 175.23552,120.925073 C181.661022,121.499419 180.344811,128.605761 185.489999,131.275276 C191.807811,134.529906 193.865886,128.569864 198.7239,126.907849 C199.920456,126.511789 201.260598,127.099298 202.457153,126.704435 C205.10154,125.817787 204.527193,124.490808 205.699818,122.587088 C207.614306,119.501172 209.815968,120.445254 212.603942,118.077271 C214.662017,116.330301 214.997052,113.219257 217.23461,111.747494 C219.220892,110.406155 221.841348,111.171951 223.851561,109.915568 C228.817266,106.81649 223.313111,102.078131 225.048116,98.1187292 C226.113051,95.7256187 230.324925,94.6487189 232.227448,92.8419205 C234.129971,91.035122 236.487185,88.1262961 237.14529,85.5668644 C238.497398,80.38578 235.948735,77.3094364 231.533446,75.0240158 C225.347255,71.8651099 223.50456,71.7215233 222.331936,64.4356982 C221.374692,58.4529218 219.436272,53.4501242 213.860325,50.2792527 C208.284377,47.1095778 201.787082,46.8451391 196.426514,43.2447043 C191.556534,39.9781083 189.247183,38.2419066 183.264406,38.2897689 C180.344811,38.2897689 177.736321,39.0088986 174.888519,39.2482096 C172.650961,39.4276929 170.628782,38.6128388 168.463017,38.5889077 C160.362338,38.4931832 159.417059,46.8822323 157.574364,52.6615943 C156.916259,54.7077038 155.791497,54.874025 158.172642,56.2512601 C160.170889,57.3760221 161.905894,56.3469845 162.839208,54.5880483 C163.772521,52.8279155 163.246036,49.1903874 161.032409,48.521513 C157.514537,47.4565788 155.552186,53.3077341 154.953908,55.891097 C152.883868,64.6989404 163.126381,63.9917762 167.960464,60.0072471 C171.298853,57.2671355 177.078215,51.0462447 175.139796,46.2468614 L174.158621,46.2468614 C172.232167,50.4001048 172.758651,54.061564 177.209836,54.4324961 C182.678094,54.8871871 180.129431,51.8599022 178.155115,48.521513 C180.548226,51.0570137 179.35167,56.6700545 183.491752,58.0939552 C186.937831,59.2905105 193.471023,54.6945417 195.182097,52.0154544 C192.788986,52.0154544 188.002765,55.0894049 186.69852,57.4585844 C184.496858,61.5639655 188.230111,64.280146 190.994153,66.8635089 C197.754691,73.1944828 203.342604,78.6268438 213.202219,77.321402 C226.842949,75.5265691 237.312808,71.4116155 248.476669,62.2926677 C254.686791,57.2324354 275.758129,36.0761416 281.286214,28.8621098 C284.708363,24.3857965 302.046448,16.8965571 307.610431,21.6827782 C310.398404,24.0758887 310.757371,27.7959791 311.200096,31.2552204 C312.396652,39.8093941 272.539395,62.819152 260.573843,66.56437 C251.994541,69.2326883 242.721238,68.9586771 235.111146,74.4736004 C230.731754,77.6337029 226.926708,79.0085449 221.685796,80.7686777 C218.802098,81.7259219 214.566292,82.5503485 212.867184,85.3263568 C233.67528,89.9941189 240.711025,86.1531765 261.052465,81.3669554 C267.44207,79.8580992 302.931899,69.4014026 322.076784,58.6312086 C332.642367,52.6484322 337.249105,54.8752215 343.614779,52.6484322 C367.545884,44.2725452 356.776887,11.9655528 313.700897,41.8794347 C291.720176,57.1355145 249.086912,78.9738448 238.317914,75.384179 C227.548917,71.7945131 211.993698,58.6312086 220.369585,52.6484322 C228.745472,46.6656558 246.693801,39.4863241 255.069688,34.700103 C260.944775,31.3377827 289.96124,18.7500212 305.32501,11.9655528 C330.081739,1.03023409 340.025113,0 350.79411,0 C359.253756,0 359.169997,4.78622111 359.169997,4.78622111" id="icon-handshake"></path>
                </g>
            </g>
        </g>
    </g>
</svg>