<?xml version="1.0" encoding="UTF-8"?>
<svg width="360px" height="153px" viewBox="0 0 360 153" version="1.1" xmlns="http://www.w3.org/2000/svg" xmlns:xlink="http://www.w3.org/1999/xlink">
    <!-- Generator: Sketch 51.2 (57519) - http://www.bohemiancoding.com/sketch -->
    <title>icon-cashprize</title>
    <desc>Created with Sketch.</desc>
    <defs></defs>
    <g id="Design" stroke="none" stroke-width="1" fill="none" fill-rule="evenodd">
        <g id="Innovator's-Cup-Homepage" transform="translate(-137.000000, -1743.000000)" stroke="#7202E4">
            <g id="Benefits" transform="translate(0.000000, 1623.000000)">
                <g id="Group-4" transform="translate(137.000000, 121.000000)">
                    <path d="M0,134.471094 C1.18409367,134.67239 3.45755353,133.002818 4.94951156,132.244998 C8.71729764,130.279403 12.6875637,128.725872 16.7904483,127.615192 C25.3159228,125.43646 35.0965365,125.708801 43.8588297,125.933779 C50.8686643,126.123234 57.7245667,128.124352 64.7107193,128.846649 C70.6311877,129.463562 76.6463836,130.030743 82.6378976,130.681995 C95.662928,131.948975 110.239121,133.121228 122.198467,128.313807 C136.336546,122.655024 142.126764,108.977557 151.670559,98.1549413 C158.348847,90.5885827 165.346841,81.6841983 173.967043,76.3794586 C179.390192,73.0403145 189.952307,74.7335684 193.125678,81.1158333 C188.294576,81.5077683 186.328981,74.0112713 184.375226,71.3115377 C183.996316,76.2492083 184.967273,80.5829912 185.677729,85.2720021 C186.459231,90.5056962 186.151367,96.0946183 186.684209,101.399358 C187.134164,105.946278 186.151367,123.163 189.751011,124.690481 C197.44762,127.934897 203.522021,114.744094 201.698517,109.178853 C199.614512,102.832111 188.081439,97.089257 182.587245,94.1527047 C179.342828,92.412087 174.713022,90.7425149 172.439562,87.5809848 C168.993849,82.8446101 173.777588,79.5054659 177.400914,77.1254376 C180.692695,86.1837543 180.219057,97.4444851 180.195375,107.130371 C180.195375,111.191813 180.597967,115.513755 180.195375,119.575196 C179.733579,124.311571 177.827188,123.766887 174.476203,121.363177 C171.125218,118.959467 168.887281,116.425507 167.833437,112.257497 C166.73223,114.921708 166.377002,118.781853 164.19827,121.043472 C169.183304,121.22227 175.210341,124.347093 175.127455,129.580787 C178.36003,130.764881 180.148012,131.948975 180.538763,127.59151 C180.929514,123.234045 178.999441,118.687126 178.833668,114.294138 C178.502122,105.283185 180.361149,95.8104358 178.833668,86.9652561 C177.847318,82.3674203 177.151071,77.7127481 176.749663,73.0284735 C164.683748,77.2912108 164.600862,94.8868428 174.760385,101.055971 C178.127948,102.906709 181.585501,104.585754 185.121205,106.088369 C188.21169,107.557829 192.379699,108.278942 194.4045,111.168131 C196.985824,114.850662 195.103115,119.764651 192.237608,122.91434 C191.314015,123.92082 189.691807,124.478528 189.064237,125.862733 C188.34194,127.473101 189.691807,128.894013 187.974871,130.24388 C182.303062,134.743436 185.748775,122.28677 186.104003,120.771131 C187.412426,114.651734 187.612538,108.34762 186.69605,102.157178 C185.381706,93.536976 183.877907,85.4259343 184.327862,76.4623452 C188.353781,74.2362491 190.899582,83.045906 192.474427,85.3193659 C193.658521,83.8984535 193.303292,80.7369234 193.551952,78.8542144 C198.70276,76.0242305 201.840608,74.994069 206.813801,78.8542144 C212.272473,83.0695879 217.150939,86.9297333 219.092853,93.904045 C221.754695,103.290356 223.243101,112.971505 223.521363,122.724885 C223.721475,129.308446 234.391343,140.036335 228.387988,145.317392 C223.758182,149.390675 217.944282,144.879278 214.995889,141.255951 C210.650265,144.334595 207.891327,145.779189 202.432655,146.075212 C197.18712,146.359395 192.746768,147.969762 187.726211,149.497243 C180.236819,151.748205 172.164852,150.988017 165.228431,147.377715 C159.5211,144.476686 152.428379,135.690711 145.75009,136.235394 C145.323817,137.160171 145.192382,138.193885 145.37118,139.195628 C149.290531,139.337719 154.997862,141.37436 155.199158,146.016008 C150.54567,147.555329 146.827616,149.272265 141.653126,148.798628 C137.307503,148.419718 132.630333,145.506847 137.710094,141.398042 C135.223498,145.862075 123.903562,149.828789 120.753873,144.003048 C118.468572,139.775834 126.330954,135.976077 128.687301,133.346205 C131.931717,129.793924 135.791863,126.312689 135.483998,121.161881 C134.299905,123.447182 129.681939,133.40541 127.195343,130.634631 C126.117817,129.450537 126.011249,123.530069 125.833635,121.801292 C125.599184,118.186254 125.806401,114.555823 126.449364,110.990517 C127.834753,102.358474 130.676578,93.6447285 136.786501,87.3086432 C139.624774,84.1021176 142.902345,81.3112088 146.519751,79.0199875 C148.982666,77.610916 152.357333,76.7938914 154.08611,74.4138631 C148.923462,76.0005487 147.786732,83.424816 142.245173,85.662753 C138.077163,87.3323251 136.028681,86.4679367 138.124527,81.9446989 C141.546558,74.5441134 148.615597,69.6064428 153.659836,63.4965194 C155.542545,61.2230596 159.059303,57.4694826 159.260599,54.3197935 C157.684571,53.8118173 156.174851,53.1203066 154.761043,52.2594705 C160.574943,45.5456593 177.614051,46.3390021 185.748775,46.0666605 C187.71437,45.9956149 196.783344,45.3798862 197.139756,48.7308713 C197.494984,52.0818564 181.557083,52.2831523 179.177055,52.5554939 C176.33523,52.910722 149.858896,57.410278 156.975298,48.1033017 C160.456534,43.5682229 171.681742,42.8104029 176.939118,42.1828333 C180.550604,41.7802414 190.485149,38.1569148 193.39802,40.7856028 C199.910535,46.7060711 184.754136,48.0677789 182.338585,48.3993251 C177.560767,49.1914838 172.733217,49.6544644 167.892642,49.7847147 C163.156267,49.7847147 163.558859,49.9031241 161.628787,46.6350255 C159.402691,42.8696076 158.00546,39.8738506 154.524225,36.8899346 C152.084992,34.7940888 149.27869,33.7876091 146.661843,32.0233096 C143.109562,29.6551222 141.143966,25.9015453 138.988916,22.3611052 C137.662731,20.1823728 134.335427,16.7011374 135.63793,13.9421991 C137.437753,10.1294175 144.447587,11.5740118 147.573595,11.8937171 C151.125876,12.2607861 157.223958,13.1843792 153.494063,18.465437 C150.225965,23.2018117 141.286057,23.3675848 137.461435,19.5074394 C131.173897,13.1606973 140.800579,11.2187837 145.951386,11.6213755 C148.816893,11.8463533 151.9429,12.8054692 154.84393,12.2015814 C157.531823,11.6332165 159.367168,10.0938947 162.291879,10.591214 C166.305957,11.2543065 173.55261,16.2985456 175.648456,10.4609637 C177.152255,6.31663588 172.700062,3.35640169 171.184423,0.372485631 C176.536526,0.0290984654 185.31066,-1.13131334 188.945828,3.92476666 C190.887741,6.64818211 190.721968,9.34791569 193.421702,11.7871487 C196.512186,14.5697688 200.679012,15.7893853 204.717955,16.3103865 C209.181989,16.8905924 211.822518,16.6064099 212.828997,12.2489452 C213.835477,7.89148047 212.260632,5.33383813 208.092622,4.70626848 C202.965497,3.94844853 199.507943,5.71274811 195.067592,7.417843 C192.438904,8.42432262 191.408743,8.95716477 189.372101,7.50072955 C185.571161,4.84835972 185.192251,0.348803758 179.094168,0.0172575286 C175.151136,-0.195879333 173.481564,1.56842024 172.782949,5.1325422 C172.54613,6.31663588 171.492287,10.970124 172.66454,11.9410808 C173.457882,12.5923324 175.530046,11.6450574 176.512844,11.9410808 C181.63997,13.4211979 186.080321,13.3146295 186.506595,17.5892077 C186.731573,19.957395 183.996316,25.3568622 187.690688,24.6937697 C190.058876,24.2793369 209.96349,17.0800474 211.372562,15.2210203 C214.924843,21.5796033 191.242969,36.2978877 191.467947,42.6801526 C191.621879,46.1495471 193.741407,50.2701931 195.624116,53.3369957 C198.823537,58.1965162 202.478834,62.7410677 206.54146,66.9067092 C212.071177,72.8271776 215.055093,78.9015782 217.375917,86.6692327 C222.420156,103.542568 228.03276,121.848656 247.688715,126.289007 C262.170181,129.557106 273.28882,124.478528 287.272966,122.038111 C296.745716,120.404061 305.543532,121.174906 314.779463,123.222204 C330.681841,126.774485 344.168668,135.524938 360,139.242992" id="icon-cashprize"></path>
                </g>
            </g>
        </g>
    </g>
</svg>