<?xml version="1.0" encoding="UTF-8"?>
<svg width="360px" height="185px" viewBox="0 0 360 185" version="1.1" xmlns="http://www.w3.org/2000/svg" xmlns:xlink="http://www.w3.org/1999/xlink">
    <!-- Generator: Sketch 51.2 (57519) - http://www.bohemiancoding.com/sketch -->
    <title>icon-megaphone</title>
    <desc>Created with Sketch.</desc>
    <defs></defs>
    <g id="Design" stroke="none" stroke-width="1" fill="none" fill-rule="evenodd">
        <g id="Innovator's-Cup-Homepage" transform="translate(-540.000000, -1727.000000)" stroke="#7202E4">
            <g id="Benefits" transform="translate(0.000000, 1623.000000)">
                <g id="Group" transform="translate(540.000000, 105.000000)">
                    <path d="M0,182.643762 C11.2587815,174.710905 26.3253347,176.415 39.5585164,176.426752 C60.2897175,176.426752 81.0091662,180.457819 101.775624,178.777229 C109.602711,178.1426 117.230006,177.35519 124.963073,176.1682 C131.379874,175.181 136.550922,172.360428 142.521131,169.939438 C147.727436,167.824009 152.686941,165.46178 158.140046,164.063247 C162.523685,162.888009 168.564409,165.238485 172.760009,163.722428 C179.964219,161.089894 185.5466,141.016827 177.460962,140.217665 C167.306904,139.218712 169.328314,132.308312 165.332504,126.960978 C160.706767,120.345563 157.412574,112.893377 155.636789,105.019282 C154.84938,101.21151 152.240351,95.8524241 156.306675,94.3833764 C159.444561,93.2081383 165.70858,95.7701575 167.835761,98.2381576 C170.186238,100.905948 170.903133,105.066291 171.573019,108.368711 C172.36748,111.872095 173.40404,115.315543 174.675647,118.675549 C176.320981,123.51753 175.357285,128.00694 178.6362,131.990997 C179.705667,133.283759 179.024029,140.805284 180.986676,140.217665 C181.255806,134.811569 182.537991,127.76014 181.255806,122.82414 C180.046486,117.441549 178.53983,112.128297 176.744067,106.911415 C173.324123,97.9090909 167.118866,90.7518905 156.765018,94.1824107 C152.957246,95.4528432 149.713589,99.0608243 145.964579,99.6484434 C142.438865,100.200805 143.15576,98.3321766 140.358693,96.9453956 C138.560579,96.063967 135.740007,96.5458146 133.68334,96.532887 C128.30075,96.532887 123.56454,94.3481193 120.755721,89.6354143 C118.558025,85.8981569 116.795168,77.7537565 117.911644,73.5228991 C119.639244,66.9650702 130.087112,67.0943464 132.085017,60.9008413 C132.437588,59.8078698 132.085017,57.903984 132.684388,57.010803 C133.554064,55.8355649 135.234655,55.9883458 136.210102,55.130422 C137.749664,53.8494124 137.97296,50.3354503 140.911055,52.3451075 C134.835074,60.5717746 131.673683,75.520804 137.514617,85.4750712 C139.018922,88.0488428 141.18136,89.5884048 143.132255,91.6098144 C144.413265,92.9143287 145.67077,95.7466527 147.269094,96.463548 C150.101417,97.7445576 154.026713,95.6291289 156.600484,94.7124431 C161.207418,93.0906145 165.861361,91.6098144 170.515304,90.1290143 C174.828428,88.765738 182.690772,85.0872426 174.182047,83.3948997 C171.443742,82.8542901 168.623171,81.7260615 165.884866,81.6555472 C161.865551,81.5615281 159.150751,84.205814 155.83658,85.9099093 C151.852522,87.9548237 146.129113,89.5178905 142.90896,85.6160998 C138.208007,79.8809376 136.832979,67.9052607 139.007169,60.9360985 C140.182407,56.9402887 137.256064,54.2019838 140.899303,52.1218123 C145.235932,49.6538122 155.895342,47.5618882 160.443513,45.8225358 C165.720333,43.7893738 171.502504,43.4015452 176.720562,41.1215831 C180.004177,39.7065964 183.009261,37.7169182 185.59361,35.2453923 C187.156677,33.7410875 188.343667,31.1555636 190.741153,31.4493731 C197.722068,22.8348774 191.916391,6.76937179 206.407078,4.3366288 C213.858088,3.09087635 221.285593,8.50872426 226.762203,12.8923626 C234.847841,19.3679248 238.573346,28.3114872 242.040299,37.8074115 C246.823518,51.0876027 253.616394,82.2314139 233.390546,85.8158903 C224.493993,87.3907094 220.227878,79.493109 211.89544,78.5529185 C203.563001,77.6127279 194.266867,80.9033948 186.0402,82.6192425 C183.178495,83.3302616 180.267431,83.8215111 177.331686,84.0882902 C173.65319,84.299833 170.762104,82.7132615 167.342161,82.3724425 C166.437228,86.6032998 172.654238,90.2347857 176.273971,88.518938 C178.730219,87.3436999 179.658657,84.0060235 181.832848,82.5369758 C185.147019,80.2805185 190.517858,79.833928 194.302125,79.2345566 C199.226372,78.4588994 204.256392,78.5059089 209.167712,77.8595279 C212.236259,77.4481946 213.493764,77.459947 212.165745,74.4630897 C211.331325,72.5827086 208.64003,71.0666514 207.276754,69.5505942 C204.794651,66.7182702 202.638089,63.6156415 200.848201,60.3014699 C197.054532,52.9750352 194.662923,45.0022195 193.796772,36.7967067 C192.621534,27.0657348 197.322487,14.1968769 206.794906,10.0482862 C223.858189,2.64428585 235.882051,30.2388778 239.748584,41.485907 C242.724287,49.7619341 243.926556,58.5703441 243.274299,67.3411464 C242.698432,75.8733755 234.283727,84.2293188 226.820964,80.2687662 C221.003536,77.1778898 214.140145,69.2450322 210.63676,63.9799653 C206.858369,58.4963041 203.752215,52.5778047 201.388811,46.3513929 C201.071496,45.4582119 199.872753,43.0724785 200.213573,42.1792975 C201.118506,40.0286116 206.736144,39.1941926 208.698792,38.5713163 C214.31643,36.7849543 219.440469,34.3287066 223.976888,39.4292402 C229.006907,45.1408976 228.265332,52.204079 222.131764,56.1763839 C219.569745,57.8452221 214.845288,61.8292795 211.777916,62.2171081 C208.052411,62.6754509 206.37182,59.0087079 204.93803,56.023603 C200.307592,46.3984025 212.718107,49.1014502 217.736373,44.753069 C219.134907,43.5778309 218.547288,40.6279831 219.722526,39.8405735 C222.167021,38.2069925 224.023898,42.2850689 224.635021,43.7541166 C229.582774,55.5064982 211.413592,48.325793 222.496088,44.2477166 C236.681213,39.0414116 250.701804,33.447278 265.063214,28.6405539 C288.33293,20.8487249 312.07274,14.9960389 335.577504,8.10914329 C342.840475,5.98196222 350.1152,3.40819066 357.49452,1.66883818 C357.613219,0.740400039 358.271352,1.06946672 359,0" id="icon-megaphone"></path>
                </g>
            </g>
        </g>
    </g>
</svg>