<?xml version="1.0" encoding="UTF-8"?>
<svg width="1445px" height="166px" viewBox="0 0 1445 166" version="1.1" xmlns="http://www.w3.org/2000/svg" xmlns:xlink="http://www.w3.org/1999/xlink">
    <!-- Generator: Sketch 51.2 (57519) - http://www.bohemiancoding.com/sketch -->
    <title>illustration-people</title>
    <desc>Created with Sketch.</desc>
    <defs></defs>
    <g id="Symbols" stroke="none" stroke-width="1" fill="none" fill-rule="evenodd">
        <g id="Final-Call-to-Action" transform="translate(0.000000, -355.000000)">
            <g id="illustration-people">
                <g transform="translate(0.000000, 356.000000)">
                    <path d="M1226.91973,7.79418846 C1227.11724,7.79418846 1227.30404,7.80334276 1227.47733,7.8224142 C1232.63003,8.38947182 1232.90119,13.6430191 1233.04645,16.4653386 C1233.10914,17.6780282 1233.02963,18.7452663 1232.95955,19.6873956 C1232.92565,20.1400246 1232.89507,20.5501878 1232.88284,20.9216995 C1233.33952,20.5908735 1233.7832,20.2839504 1234.2065,20.0151702 C1234.30487,15.5163435 1233.92821,10.3451849 1231.25464,8.24020598 C1229.81094,7.10303931 1227.74568,6.92809059 1225.11671,7.71993697 C1224.04916,8.04135439 1223.08126,8.40142326 1222.21326,8.79912645 C1223.88352,8.18350022 1225.6371,7.79418846 1226.91973,7.79418846 M1226.63074,19.2889296 C1228.4962,19.2889296 1229.8953,20.7236108 1230.70264,22.5529437 C1230.91187,22.4031693 1231.19297,22.1890606 1231.51254,21.9452004 C1231.63257,21.8536574 1231.75209,21.7628774 1231.87136,21.6728602 C1231.83594,21.0473168 1231.88742,20.3564219 1231.94297,19.612127 C1232.01102,18.7000034 1232.08772,17.6663311 1232.0286,16.5177215 C1231.84053,12.8684642 1231.32523,9.26930113 1227.36546,8.83345505 C1225.32492,8.60942915 1220.8789,10.0456361 1218.9459,11.6812032 C1219.79887,11.9092976 1220.63705,12.2609751 1221.2683,12.6670697 C1221.4997,12.815827 1221.57106,13.1207158 1221.42936,13.3561846 C1221.11285,13.8820479 1221.03232,14.4485969 1221.19032,15.0395574 C1221.36106,15.6793408 1221.81749,16.3137842 1222.42835,16.7854846 C1222.76806,16.0193211 1223.38861,14.9805631 1224.32898,15.1051632 C1225.7003,15.2867233 1226.35372,17.8461112 1226.56499,19.2896924 C1226.58691,19.2891839 1226.60882,19.2889296 1226.63074,19.2889296 M1232.95139,22.1341348 C1233.07754,22.7614582 1233.38845,23.2214615 1234.05156,23.5576275 C1234.09284,22.8443554 1234.1354,22.0710719 1234.16751,21.2619341 C1233.74523,21.5505486 1233.3278,21.8539117 1232.95139,22.1341348 M1235.05208,23.9108306 C1235.42135,24.0023735 1235.85076,24.0789136 1236.34872,24.1427394 C1237.15021,24.2452166 1237.89589,24.3782081 1238.58575,24.539934 C1238.33396,22.717721 1237.85587,20.0706045 1236.83267,19.9727044 C1236.47181,19.9378673 1235.87981,20.2018161 1235.21416,20.592145 C1235.17669,21.7585545 1235.11222,22.8827526 1235.05208,23.9108306 M1234.55487,24.8216828 C1233.51434,25.4510405 1232.00465,26.4302956 1230.50794,27.636628 C1232.49904,26.6128729 1234.81405,25.5143577 1236.84593,25.2399832 C1236.63466,25.2074346 1236.42518,25.1779374 1236.21875,25.1517459 C1235.57655,25.0693573 1235.02608,24.9587429 1234.55487,24.8216828 M1219.54581,25.2081974 C1219.66686,25.2081974 1219.78536,25.2511717 1219.87863,25.3317804 C1219.99484,25.4314605 1220.05983,25.578692 1220.05524,25.7322807 C1220.01115,27.1916277 1220.39597,28.067897 1221.23186,28.4063515 C1222.74767,27.3564049 1224.40187,26.3931698 1226.02166,25.4500233 C1227.3652,24.6675855 1228.64809,23.9207478 1229.83821,23.1395814 C1229.20773,21.6197144 1228.02143,20.0535674 1226.1975,20.3409105 C1226.0581,20.3625248 1225.91616,20.3259076 1225.80504,20.2394504 C1225.69393,20.1532474 1225.62359,20.0245788 1225.61085,19.8847215 C1225.42125,17.8145798 1224.62104,16.1698584 1224.19519,16.1136612 C1224.07771,16.0971326 1223.65747,16.3572671 1223.14752,17.7296483 C1223.09579,17.8689969 1222.98544,17.9785942 1222.84604,18.0299599 C1222.70639,18.0813257 1222.55068,18.06912 1222.42122,17.9966485 C1221.32003,17.3828023 1220.49154,16.3753214 1220.20509,15.3012176 C1220.02211,14.6154085 1220.06391,13.9303622 1220.32359,13.2936302 C1219.61411,12.9185585 1218.71247,12.621044 1217.86817,12.4913581 C1217.78662,12.4786438 1217.71067,12.4468581 1217.6462,12.3998152 C1217.21602,13.0698586 1216.92218,13.7882164 1216.76571,14.5541256 C1216.34521,16.6148587 1216.78941,18.2186401 1217.2596,19.9167615 C1217.69385,21.4849428 1218.14161,23.1014385 1217.87301,25.0830887 C1218.08351,25.0980916 1218.29579,25.1288602 1218.50451,25.1588659 C1218.85085,25.2089603 1219.20788,25.2605803 1219.45534,25.2163346 C1219.48541,25.2109946 1219.51574,25.2081974 1219.54581,25.2081974 M1230.17945,24.1315508 C1229.0115,24.88678 1227.75741,25.6170892 1226.53543,26.3285812 C1225.316,27.0385475 1224.07643,27.760211 1222.89854,28.5184916 C1225.40545,28.1322313 1228.86063,25.8451837 1230.2113,24.2510652 C1230.20111,24.2116509 1230.19041,24.171728 1230.17945,24.1315508 M1239.94331,45.8391776 C1239.62679,45.8391776 1239.34468,45.9289406 1239.08983,46.108975 C1237.389,47.3107303 1237.08472,52.1200401 1236.9025,54.9934711 C1236.88798,55.2220741 1236.87421,55.4427943 1236.8602,55.6541059 C1239.06409,52.3605946 1241.28379,48.4972285 1240.28327,45.8712177 C1240.16579,45.8498577 1240.05238,45.8391776 1239.94331,45.8391776 M1235.24244,59.8353294 C1235.06558,60.1056354 1234.90376,60.3611927 1234.76206,60.5971701 C1232.01051,65.1951682 1231.57982,68.7208426 1230.98374,73.6005896 C1230.89556,74.3245416 1230.80356,75.0759565 1230.70061,75.8622086 C1231.30688,74.3186931 1231.87646,72.7138946 1232.3808,71.0546789 C1233.68738,66.7536867 1234.6168,63.116635 1235.24244,59.8353294 M1245.36895,31.7146115 C1245.43189,34.8868284 1246.0713,38.2734084 1246.6921,41.5610712 C1246.95969,42.9782067 1247.21224,44.3165135 1247.42044,45.636766 C1248.29023,51.1473964 1248.71327,56.8423841 1248.71327,63.0464521 C1248.71327,64.7463536 1248.83993,66.472955 1248.97372,68.3010166 C1249.2752,72.4123114 1249.58637,76.6639722 1248.34731,80.5321697 C1247.60954,82.8352374 1246.41941,84.8674905 1245.26803,86.8326122 C1244.65742,87.875693 1244.06338,88.889531 1243.53712,89.9290519 C1243.93035,89.901589 1244.29325,89.8718376 1244.61843,89.842849 C1244.82128,89.6531517 1245.0221,89.4596401 1245.22063,89.2618056 C1245.36946,89.1133027 1245.59397,89.0710912 1245.78689,89.156277 C1245.97955,89.2412085 1246.10009,89.4354829 1246.09016,89.6452688 C1246.08939,89.6617974 1246.08837,89.6788346 1246.08761,89.6953631 C1246.38476,89.6684088 1246.70611,89.6460317 1247.04098,89.6226374 C1248.95588,89.4891373 1251.57849,89.3068142 1252.17329,87.9919017 C1252.49542,87.278884 1251.69546,84.3848558 1251.26554,82.8301516 C1251.03185,81.9854138 1250.83026,81.2558675 1250.75661,80.8073071 C1249.65186,74.0809357 1249.13122,69.0099657 1249.74004,62.9955949 C1250.30197,57.4402103 1250.11593,52.4139946 1249.81369,46.4197124 L1249.78362,45.8061205 C1249.56904,41.4097711 1249.27546,35.3890431 1246.15514,32.5143407 C1245.88755,32.2679376 1245.62455,31.9897488 1245.36895,31.7146115 M1243.03457,90.9805242 C1242.97876,91.1053786 1242.92397,91.2307416 1242.87045,91.3571217 C1243.03228,91.2261644 1243.19257,91.0939358 1243.35211,90.9604356 C1243.24813,90.9673014 1243.14237,90.9739128 1243.03457,90.9805242 M1215.82635,89.7553746 C1217.29706,92.9548002 1219.68164,95.6296339 1223.51934,95.169122 C1223.74998,93.1315289 1223.08381,91.6236133 1222.25277,89.7426603 L1222.25047,89.737066 C1221.8152,89.6762917 1221.37381,89.6089059 1220.92885,89.5410116 C1219.2721,89.2877428 1217.56312,89.0258283 1215.94715,89.0759226 C1215.88599,89.3126628 1215.84699,89.5382144 1215.82635,89.7553746 M1242.21575,93.1635689 C1240.57609,98.5869792 1239.03861,102.944169 1236.46188,107.872484 C1235.1507,110.380252 1233.78779,113.438549 1232.97764,116.102194 C1235.02506,114.779399 1237.17366,112.901751 1238.12142,111.067841 C1239.02102,109.325983 1239.39692,107.351707 1239.79473,105.261222 C1240.15916,103.347975 1240.53582,101.369884 1241.35081,99.5405514 C1241.65561,98.856268 1241.98487,98.1600331 1242.33324,97.4228582 C1243.37351,95.2225221 1244.44233,92.9624288 1244.87684,90.9871357 C1244.01903,91.7571135 1243.13116,92.4658083 1242.21575,93.1635689 M1240.83271,94.2008012 C1240.7323,94.275307 1240.6319,94.3498128 1240.53098,94.4245728 L1240.24963,94.6333416 C1237.60587,96.5956661 1236.56407,99.698463 1235.46136,102.983837 C1235.0062,104.339435 1234.53576,105.741568 1233.94044,107.080383 C1233.59156,107.864856 1233.24039,108.545579 1232.90093,109.203925 C1232.17004,110.621061 1231.53853,111.844939 1231.34052,113.403712 C1231.28191,113.863969 1231.30357,114.30719 1231.32625,114.776601 C1231.35581,115.384345 1231.38639,116.013194 1231.2526,116.745792 C1231.22864,116.87624 1231.195,117.00974 1231.15448,117.145021 C1231.22737,117.110692 1231.29796,117.076363 1231.36524,117.041526 C1231.47406,116.985329 1231.58466,116.926843 1231.69603,116.866323 C1232.63666,113.188077 1234.72715,108.991342 1235.55794,107.402309 C1237.88442,102.952306 1239.35487,98.9640852 1240.83271,94.2008012 M1235.61324,118.862468 C1235.63287,118.876453 1235.65274,118.890439 1235.67186,118.904171 C1236.4685,118.527065 1237.17901,117.97323 1237.92672,117.390406 C1238.66195,116.8175 1239.41782,116.228574 1240.28047,115.804425 C1239.8824,115.614219 1239.48255,115.429608 1239.08168,115.252116 C1237.75649,116.279686 1236.27023,117.564338 1235.61324,118.862468 M1223.57184,121.40609 C1224.19264,121.43635 1224.87002,121.325481 1225.57492,121.209273 C1226.81779,121.00381 1228.20007,120.776224 1229.41593,121.410413 C1229.33184,120.867512 1229.28469,120.32334 1229.28571,119.777897 C1229.28622,119.476314 1229.3456,119.167865 1229.43581,118.857891 C1229.17485,118.940533 1228.90777,119.022922 1228.63738,119.106328 C1226.70796,119.702628 1224.55936,120.366315 1223.57184,121.40609 M1244.89901,120.373689 C1245.62557,120.373689 1246.4421,120.528295 1247.39929,120.935661 C1249.09273,121.656307 1250.81319,123.175157 1252.33104,124.515498 C1252.70312,124.843781 1253.05888,125.158079 1253.39323,125.440845 C1254.98092,126.784237 1256.19805,128.659342 1257.37493,130.4724 C1258.86347,132.765805 1260.26919,134.931813 1262.31891,136.029056 C1262.4685,136.109157 1262.61325,136.189002 1262.7524,136.26834 C1263.27993,136.117039 1263.83345,135.973368 1264.41297,135.837325 C1262.70551,134.191841 1260.63056,132.160859 1258.64864,130.087157 C1257.90704,129.311331 1257.34307,128.48897 1256.7977,127.693309 C1256.01074,126.545463 1255.26736,125.461188 1254.0357,124.536095 C1250.7505,122.069268 1246.60825,119.106582 1242.16708,116.755455 C1242.01723,117.972976 1241.38598,118.950196 1240.7741,119.897157 C1240.34443,120.561861 1239.93286,121.198593 1239.70707,121.887199 C1240.49581,121.758276 1241.1686,121.47017 1241.87171,121.168841 C1242.79017,120.775461 1243.728,120.373689 1244.89901,120.373689 M1262.61988,137.370669 C1260.66599,137.965698 1259.10761,138.674139 1258.0021,139.471579 C1259.38922,139.461916 1260.73607,139.108205 1262.04826,138.763902 C1262.66295,138.60243 1263.2863,138.438924 1263.91857,138.308984 C1263.58701,138.00791 1263.15378,137.694884 1262.61988,137.370669 M1225.7026,126.091817 C1226.25867,126.347374 1226.7788,126.499437 1227.2862,126.64794 C1228.66644,127.051746 1229.97022,127.433175 1230.88639,129.816343 C1231.5105,131.439195 1231.54389,133.372277 1231.576,135.241279 C1231.59129,136.134331 1231.60607,136.977797 1231.6838,137.756166 C1231.7995,138.91571 1232.2391,140.64638 1232.70445,142.479019 C1233.28932,144.782087 1233.91521,147.247134 1234.16929,149.440351 C1234.59004,147.482858 1234.17541,145.686582 1233.73784,143.791134 C1233.65272,143.422674 1233.56659,143.049891 1233.48529,142.670751 C1232.95598,140.209009 1232.98936,138.267535 1233.02836,136.019139 C1233.03728,135.505227 1233.04645,134.971227 1233.04976,134.405441 C1233.06429,131.819099 1232.08543,129.329639 1231.13843,126.921806 C1230.64556,125.668939 1230.14377,124.392678 1229.78699,123.10294 C1228.98652,124.092875 1227.91541,124.734693 1226.87463,125.358202 C1226.46458,125.604096 1226.06906,125.841091 1225.7026,126.091817 M1225.54383,154.267969 C1225.7477,154.267969 1225.93986,154.273309 1226.1134,154.291872 C1226.68808,154.353155 1227.29996,154.460209 1227.89196,154.563703 C1230.37593,154.997007 1232.05663,155.183653 1232.76969,153.873826 C1233.98122,151.648824 1232.72535,146.702963 1231.71616,142.728982 C1231.22074,140.777338 1230.79286,139.09193 1230.66951,137.856864 C1230.58745,137.0373 1230.57267,136.173237 1230.55662,135.258824 C1230.52604,133.477806 1230.49418,131.636267 1229.9348,130.180989 C1229.19906,128.267487 1228.32418,128.011675 1226.99924,127.623889 C1226.26402,127.408763 1225.43017,127.164903 1224.49438,126.60344 C1224.3537,126.519017 1224.26221,126.371531 1224.24922,126.208025 C1224.23622,126.044265 1224.30273,125.884574 1224.42863,125.778791 C1225.01069,125.288782 1225.69164,124.880653 1226.3499,124.486255 C1227.34074,123.892498 1228.36139,123.281194 1229.06017,122.377971 C1228.11954,121.820322 1226.96025,122.011545 1225.74108,122.212685 C1224.68169,122.387379 1223.58586,122.567922 1222.55909,122.264813 C1222.41739,122.222856 1222.30119,122.122159 1222.24002,121.98815 C1222.17861,121.854142 1222.17861,121.700299 1222.23977,121.56629 C1223.06241,119.764166 1225.86417,118.898576 1228.33616,118.134701 C1228.87668,117.96789 1229.40319,117.805147 1229.88842,117.639607 C1230.0482,117.245209 1230.1927,116.87446 1230.24979,116.56296 C1230.36268,115.945554 1230.33618,115.401891 1230.30815,114.825679 C1230.28419,114.333635 1230.25922,113.824301 1230.3293,113.275552 C1230.54974,111.539033 1231.21921,110.241412 1231.99445,108.738582 C1232.32753,108.09295 1232.67157,107.425704 1233.00873,106.667932 C1233.58417,105.372853 1234.04722,103.993861 1234.49499,102.66064 C1235.59897,99.371197 1236.74068,95.9698684 1239.64106,93.817338 L1239.92266,93.608315 C1240.40177,93.2530776 1240.874,92.9026716 1241.33883,92.5512484 C1241.50448,92.0342851 1241.69409,91.5305447 1241.90102,91.0374843 C1238.32224,91.1842073 1233.37443,91.0557929 1229.63688,89.681886 C1227.02014,88.7199223 1226.81448,87.8581473 1227.23498,85.8073313 C1225.85932,88.4356307 1225.35754,88.5322593 1222.90236,88.1465076 C1222.61261,88.1007361 1222.28946,88.0501332 1221.92707,87.9995303 C1221.47829,87.9369759 1221.02875,87.8929845 1220.59398,87.8502644 C1218.97648,87.69159 1217.44869,87.5418156 1215.95887,86.5145005 C1215.87018,86.4532176 1215.80291,86.3652346 1215.76723,86.2635203 C1214.70427,83.2179377 1216.52717,78.9995884 1218.13524,75.277351 C1218.80345,73.7305297 1219.43495,72.2694028 1219.78791,71.0531532 C1220.00835,70.2925839 1220.15132,69.1625373 1220.3032,67.9658677 C1220.55856,65.950906 1220.82258,63.8672871 1221.53257,62.7558033 C1222.86821,60.6650644 1225.23572,60.7268559 1227.5255,60.7855959 C1227.95466,60.7967845 1228.39401,60.8074645 1228.82393,60.8046674 C1228.50002,59.7908294 1227.4256,59.5858749 1225.80479,59.3961776 C1224.3379,59.2245346 1222.6753,59.0300059 1222.54635,57.3590931 C1222.53411,57.2027072 1222.59502,57.0493728 1222.71123,56.9438441 C1222.82744,56.8383155 1222.9857,56.7922897 1223.14115,56.8187355 C1224.42608,57.0407271 1225.52752,56.5395295 1226.0525,55.5297601 C1221.80093,52.931975 1222.49028,49.9347068 1223.43422,45.8315491 C1223.54992,45.3280629 1223.67098,44.8016911 1223.78999,44.2496363 C1224.93959,38.9129375 1227.12335,37.658545 1231.78777,35.9611865 C1231.06452,35.5889119 1230.09357,35.4615146 1229.14631,35.3371688 C1228.41287,35.241303 1227.65445,35.1416229 1226.99211,34.9275142 C1226.77014,34.8560598 1226.62539,34.6429682 1226.64042,34.4108052 C1227.03696,28.3310829 1238.92826,28.6341917 1243.40537,28.8086319 C1242.88141,27.4138736 1241.46065,26.5172614 1239.79652,25.9418123 C1239.80671,26.1111667 1239.73153,26.275944 1239.59442,26.3789298 C1239.44661,26.4895442 1239.25064,26.5121757 1239.08193,26.4379242 C1236.86886,25.4627376 1232.9231,27.5216908 1230.04209,29.0252835 C1229.15319,29.489101 1228.38534,29.8898556 1227.74263,30.1675359 C1227.52168,30.2626388 1227.26505,30.1914388 1227.12565,29.99691 C1226.98599,29.8023813 1227.00103,29.5366525 1227.16234,29.3594152 C1229.09075,27.2386706 1231.63716,25.4495148 1233.38871,24.3456595 C1232.67718,23.9403278 1232.28039,23.4190416 1232.0704,22.8001097 C1231.72661,23.0620242 1231.42972,23.2875758 1231.21055,23.4404016 C1231.16366,23.4729502 1231.11702,23.5054988 1231.06962,23.5380474 C1231.14353,23.7773305 1231.208,24.0199193 1231.26305,24.2637795 C1231.29618,24.4107567 1231.26203,24.564854 1231.17028,24.6846227 C1229.5324,26.8160473 1224.48265,30.1128644 1221.42248,29.5173268 C1220.91075,29.8832442 1220.41992,30.2593331 1219.95738,30.647882 C1221.66662,31.4460855 1223.37128,32.0734089 1225.16385,32.7335352 C1225.33307,32.7958352 1225.4689,32.9473896 1225.50101,33.1243727 C1225.53312,33.3016099 1225.48088,33.4869844 1225.34428,33.6044645 C1223.95028,34.8052026 1222.6967,38.4763286 1222.12203,41.3792567 C1221.49511,44.5443537 1221.62687,48.1122396 1221.75454,51.5621367 C1221.83355,53.6999185 1221.91535,55.9104261 1221.81036,57.9737021 C1221.64241,61.2789106 1220.59296,64.1586988 1219.57766,66.943384 C1218.8776,68.8647685 1218.15385,70.8512501 1217.70328,72.9979319 C1217.55624,73.6984897 1217.43085,74.3962503 1217.30929,75.0708708 C1216.97162,76.9480096 1216.65281,78.7211453 1215.90586,80.5603955 C1215.63063,81.238576 1215.37808,81.7878336 1215.15535,82.2725026 C1214.40967,83.8933211 1214.10105,84.5641274 1214.62909,86.4407575 C1214.79474,87.0291752 1214.98409,87.6287814 1215.20071,88.2248276 C1215.28685,88.1386247 1215.40331,88.0844618 1215.53022,88.0768332 C1217.3572,87.9649474 1219.25172,88.2555962 1221.08328,88.5353107 C1221.61871,88.6174451 1222.14904,88.698308 1222.66944,88.7679824 C1222.84579,88.7913767 1222.99691,88.9050425 1223.06852,89.0672769 L1223.1855,89.3319886 C1224.09606,91.3934846 1224.88276,93.1737404 1224.47526,95.6985453 C1224.44035,95.9136712 1224.27215,96.0827714 1224.05681,96.1191343 C1221.03104,96.6282147 1218.49177,95.5533481 1216.53329,92.9794659 C1216.67549,93.3786948 1216.81591,93.7975037 1216.939,94.2638641 C1217.4125,96.0565799 1217.30394,97.2273123 1217.16607,98.7092907 C1217.11612,99.2448169 1217.0649,99.7983974 1217.03228,100.452166 C1216.83783,104.345538 1216.8414,109.404811 1217.0412,113.654692 C1217.1676,116.343511 1217.96959,119.098191 1218.74509,121.76209 C1219.06415,122.858062 1219.39392,123.991415 1219.67425,125.110019 C1220.13628,126.953083 1220.31518,128.842428 1220.48848,130.669981 C1220.69465,132.846668 1220.8896,134.902824 1221.52034,136.89846 C1221.72116,137.533666 1221.96173,138.154124 1222.19441,138.754239 C1222.86694,140.488723 1223.56241,142.282456 1223.24921,144.412609 C1223.14956,145.089773 1222.92275,145.657085 1222.70333,146.205579 C1222.41816,146.919106 1222.17198,147.53524 1222.22601,148.304201 C1222.25837,148.763187 1222.48544,149.133173 1222.74818,149.561899 C1223.03488,150.029531 1223.35981,150.559209 1223.44034,151.266378 C1223.54839,152.215627 1223.18703,152.768953 1222.94773,153.134871 C1222.7199,153.484005 1222.69059,153.528505 1223.33458,154.054623 C1223.63275,154.298483 1224.49106,154.283989 1225.11773,154.2728 C1225.2635,154.270258 1225.40647,154.267969 1225.54383,154.267969 M1223.23264,155.128473 C1223.24156,155.135847 1223.25074,155.143221 1223.25915,155.151104 C1225.90392,157.550292 1230.7159,159.165262 1234.20523,159.49329 C1234.24855,159.02515 1234.27556,158.467247 1234.30844,157.79644 L1234.33673,157.226077 C1234.36094,156.752597 1234.41981,156.209188 1234.48199,155.633993 C1234.67389,153.860857 1234.91013,151.676541 1234.25161,150.318908 C1234.36196,151.91913 1234.22638,153.328891 1233.66547,154.359512 C1232.5495,156.409311 1229.98194,155.96075 1227.71638,155.565336 C1227.11443,155.460316 1226.54562,155.36089 1226.00459,155.303167 C1225.77752,155.278756 1225.46508,155.284096 1225.13506,155.289944 C1224.49489,155.30037 1223.7933,155.312576 1223.23264,155.128473 M1215.12706,159.785211 C1219.83658,160.611131 1226.30148,161.263883 1232.23604,160.229957 C1228.98092,159.601616 1225.20412,158.142524 1222.83458,156.132648 C1221.68191,156.66792 1220.46223,156.983234 1219.37532,157.26422 C1217.29655,157.80178 1215.67599,158.220589 1215.12706,159.785211 M1260.53143,161.110549 C1261.29112,161.249643 1262.03578,161.071389 1262.95551,160.70776 C1266.361,154.957084 1268.88498,148.237578 1270.6666,140.179511 C1270.16149,139.70476 1269.70685,139.527268 1269.28024,139.634831 C1267.40968,140.109328 1265.99963,145.422124 1265.32174,147.975664 C1265.1826,148.50051 1265.06231,148.953647 1264.96063,149.290068 C1264.4303,151.050489 1263.61632,152.63469 1262.82911,154.166255 C1261.70983,156.344722 1260.65095,158.404947 1260.37292,160.897203 C1260.42159,160.969675 1260.47434,161.04062 1260.53143,161.110549 M1215.17854,163.125256 C1216.12554,163.128816 1217.09267,163.144836 1218.03254,163.160348 C1222.15185,163.227988 1226.41234,163.298171 1230.73501,162.437159 C1232.67871,162.049881 1233.50925,161.786187 1233.89865,160.934583 C1227.42076,162.397999 1220.12278,161.693372 1214.93592,160.783792 C1214.8954,161.417472 1214.97007,162.185161 1215.17854,163.125256 M1221.43344,164 C1220.28384,164 1219.14468,163.981183 1218.01572,163.96262 C1216.90001,163.944057 1215.84623,163.926766 1214.78353,163.926766 C1214.5427,163.926766 1214.33398,163.76148 1214.27664,163.528045 C1213.96471,162.26577 1213.86354,161.239726 1213.92801,160.397786 C1213.92878,160.390411 1213.92368,160.384054 1213.91629,160.382528 C1212.59747,160.132565 1211.44685,159.876754 1210.52151,159.654253 C1210.51335,159.652219 1210.50571,159.658068 1210.50367,159.666205 C1210.29521,160.639357 1210.22207,161.451546 1210.26361,162.311541 C1210.26386,162.317644 1210.26743,162.32273 1210.27329,162.325019 C1211.02763,162.60753 1211.88391,162.870462 1212.74987,162.907842 C1213.00981,162.919285 1213.25293,163.090419 1213.28734,163.347502 C1213.32913,163.660783 1213.08652,163.926766 1212.78223,163.926766 L1167.09906,163.926766 C1166.81746,163.926766 941,163.698925 941,163.418194 L941,162.963785 C941,162.955648 941.006626,162.949036 941.014526,162.949036 C970.118533,162.712296 1166.84906,162.909622 1167.09906,162.909622 L1209.32196,162.909622 C1209.29239,162.85139 1209.27379,162.787056 1209.26844,162.71967 C1209.16956,161.485112 1209.27812,160.346674 1209.63185,158.912756 C1209.66421,158.781544 1209.74755,158.668387 1209.86375,158.598713 C1209.97971,158.52853 1210.11885,158.507678 1210.25035,158.540735 C1211.23151,158.785104 1212.54574,159.086942 1214.09545,159.381913 C1214.10258,159.383439 1214.10997,159.378862 1214.11201,159.371742 C1214.76492,157.190477 1216.90027,156.638677 1219.11996,156.064753 C1220.3106,155.756813 1221.542,155.438701 1222.68549,154.859184 C1222.7752,154.813667 1222.87382,154.797392 1222.9699,154.806801 C1222.86872,154.756198 1222.77418,154.696949 1222.68855,154.627021 C1221.55245,153.698623 1221.60317,153.115545 1222.09374,152.364639 C1222.29966,152.049579 1222.4941,151.752064 1222.42733,151.166189 C1222.37229,150.683046 1222.13273,150.291954 1221.87891,149.877977 C1221.58813,149.404496 1221.25887,148.867444 1221.20918,148.160784 C1221.13859,147.159406 1221.45281,146.373917 1221.75658,145.613856 C1221.96326,145.097147 1222.15822,144.608918 1222.24053,144.050252 C1222.515,142.18481 1221.89751,140.592472 1221.24384,138.906302 C1221.0053,138.291438 1220.75861,137.655469 1220.54811,136.989494 C1219.88501,134.890873 1219.67578,132.684688 1219.47343,130.55072 C1219.30396,128.761056 1219.12863,126.910617 1218.6852,125.141804 C1218.40946,124.041763 1218.08249,122.91782 1217.76597,121.831002 C1216.97417,119.110396 1216.15536,116.296723 1216.02309,113.487372 C1215.82176,109.206977 1215.8182,104.110578 1216.01417,100.186692 C1216.04781,99.5113086 1216.1026,98.9211109 1216.15102,98.4005876 C1216.28456,96.964635 1216.38089,95.9271484 1215.95326,94.3083642 C1215.80087,93.7313894 1215.61432,93.2172233 1215.43389,92.71984 C1215.08577,91.7616906 1214.75193,90.840667 1214.79117,89.7413889 C1214.79143,89.7391003 1214.79092,89.737066 1214.79015,89.735286 C1214.36329,88.7662024 1213.98153,87.6875215 1213.64794,86.5010233 C1213.01847,84.2648329 1213.4484,83.3300778 1214.22873,81.6334821 C1214.44713,81.1587302 1214.69459,80.6206612 1214.96115,79.9635864 C1215.66809,78.2224906 1215.97773,76.4999577 1216.30597,74.6764734 C1216.42855,73.9947328 1216.55546,73.2893436 1216.70557,72.5745459 C1217.17091,70.3569183 1217.90767,68.3358537 1218.61996,66.3809035 C1219.65463,63.5420554 1220.63195,60.860356 1220.79225,57.7074648 C1220.89495,55.6889431 1220.81417,53.5008127 1220.73593,51.3848995 C1220.60622,47.8765165 1220.47217,44.2486192 1221.12202,40.9673135 C1221.23925,40.3743188 1222.23951,35.5449204 1224.09758,33.2299013 C1224.1037,33.2222727 1224.10039,33.2110842 1224.09096,33.2075241 C1222.28462,32.539515 1220.56773,31.8806602 1218.81568,31.0132909 C1218.66506,30.9390394 1218.56109,30.7948593 1218.53764,30.6290648 C1218.5142,30.4630161 1218.57408,30.2959503 1218.69794,30.182793 C1219.19998,29.7238069 1219.73847,29.2844008 1220.30371,28.8599976 C1220.31136,28.8541491 1220.31161,28.8427062 1220.30346,28.8371119 C1219.67119,28.3888058 1219.10875,27.5611051 1219.03994,26.0430181 C1219.03943,26.0353895 1219.03408,26.029541 1219.02643,26.0290324 C1218.80395,26.0153009 1218.57918,25.9827524 1218.35823,25.9507123 C1217.99712,25.8985837 1217.62377,25.8451837 1217.37275,25.8985837 C1217.20455,25.9359637 1217.02871,25.8843437 1216.90613,25.7630493 C1216.7838,25.6420092 1216.73079,25.4673148 1216.76571,25.2989775 C1217.18773,23.2608758 1216.74532,21.6637059 1216.27692,19.9729587 C1215.79552,18.2341515 1215.29755,16.4355872 1215.76672,14.1363338 C1216.47111,10.687708 1219.51752,8.12882875 1224.82236,6.53140454 C1227.78824,5.63809808 1230.16543,5.87178684 1231.88614,7.22687656 C1234.79672,9.51875563 1235.3031,14.5416656 1235.24168,19.1821295 C1235.24143,19.1930638 1235.25315,19.1999295 1235.26309,19.1948438 C1235.9058,18.8754607 1236.47258,18.7020376 1236.93002,18.7455205 C1238.82785,18.9270807 1239.32709,22.0947205 1239.65176,24.604014 C1239.65253,24.6098626 1239.65661,24.6141855 1239.66221,24.6159655 C1242.55393,25.5077462 1244.23514,27.0108304 1244.57714,29.0453721 C1244.60237,29.1961636 1244.55829,29.3505152 1244.45686,29.4654524 C1244.35568,29.5803897 1244.20915,29.6442154 1244.05446,29.637604 L1243.74329,29.625144 C1233.72561,29.2221008 1228.33743,30.640762 1227.71179,33.8422218 C1227.71026,33.8501047 1227.71536,33.8584961 1227.72326,33.8602761 C1228.1988,33.9721619 1228.72734,34.041582 1229.27934,34.1143078 C1230.74928,34.3070565 1232.26943,34.5064167 1233.21669,35.5734004 C1233.32882,35.7000348 1233.37087,35.8737121 1233.32882,36.037218 C1233.28651,36.2009781 1233.16597,36.3326982 1233.00644,36.3896583 C1228.15318,38.1157511 1225.93782,38.9035289 1224.78668,44.2486192 C1224.66665,44.8055053 1224.54458,45.3367086 1224.42786,45.8442634 C1223.45869,50.0565098 1222.92454,52.3789031 1226.93553,54.6537451 C1227.15266,54.7768195 1227.25587,55.0394968 1227.17509,55.2752199 C1226.68145,56.7096468 1225.43017,57.5988847 1223.91665,57.6680505 C1223.90263,57.6688133 1223.896,57.6866133 1223.90747,57.6944962 C1224.26757,57.9464936 1224.9192,58.0535479 1225.92355,58.1712823 C1227.5464,58.3609796 1229.7694,58.6211141 1229.93607,61.0477647 C1229.9455,61.184062 1229.89937,61.3185792 1229.8084,61.4208022 C1229.71742,61.5230251 1229.58897,61.5840538 1229.45212,61.5906652 C1228.80533,61.6214338 1228.1412,61.6041423 1227.49899,61.5876138 C1225.30937,61.5311623 1223.41791,61.4820851 1222.39217,63.0876465 C1221.80526,64.0068901 1221.54455,66.063809 1221.31443,67.8789019 C1221.1577,69.1157487 1221.00963,70.2844468 1220.76677,71.1210475 C1220.39622,72.39858 1219.75274,73.8884413 1219.07129,75.4652683 C1217.5677,78.9454255 1215.86764,82.880246 1216.67677,85.5507568 C1216.67804,85.5545711 1216.68034,85.5578768 1216.68339,85.5596568 C1217.91251,86.350486 1219.20533,86.4773747 1220.69363,86.6233348 C1221.13859,86.6668177 1221.59883,86.7120806 1222.06826,86.7774321 C1222.43702,86.8290522 1222.76577,86.8806722 1223.06088,86.9269522 C1225.24209,87.2694754 1225.24133,87.2694754 1226.54995,84.6978818 C1227.10985,83.5968237 1227.69038,82.432957 1228.27143,81.2121303 C1228.27168,81.2113674 1228.27194,81.2103503 1228.27219,81.2095874 C1228.37566,80.84723 1228.48218,80.4846182 1228.58769,80.1263294 C1229.02679,78.633671 1229.48092,77.0901554 1229.66594,75.6956514 C1229.77858,74.8465906 1229.8772,74.0389785 1229.97201,73.2631522 C1230.55993,68.447231 1231.02426,64.6433678 1233.88718,59.8612666 C1234.3408,59.102986 1234.98148,58.1776395 1235.65784,57.1988929 C1235.65861,57.1966043 1235.65963,57.1945701 1235.66039,57.1925358 C1235.67517,57.0959071 1235.6897,57.0000413 1235.70397,56.9041755 C1235.77864,56.3984008 1235.82808,55.6179973 1235.88542,54.7147737 C1236.10356,51.2676736 1236.4025,46.5466011 1238.50063,45.0641141 C1239.15609,44.6010595 1239.92419,44.4886651 1240.78404,44.7292196 C1240.93083,44.7704139 1241.05366,44.8759425 1241.11763,45.0137655 C1242.76647,48.5778371 1239.28963,53.7322129 1236.63364,57.5785418 C1236.63237,57.5803218 1236.63135,57.5823561 1236.63109,57.5846447 C1236.02099,61.4820851 1234.97486,65.8072345 1233.35634,71.1350332 C1232.20317,74.9294879 1230.71615,78.4373622 1229.22913,81.5706734 L1229.22837,81.572962 C1229.01583,82.3200541 1228.82571,83.0401918 1228.68581,83.7364267 C1228.58132,84.25695 1228.4753,84.7169532 1228.38203,85.1227936 C1227.85578,87.4098412 1227.78799,87.7035415 1229.98933,88.5126793 C1233.75262,89.896249 1238.84671,89.9616005 1242.36025,89.7851261 C1242.36535,89.7848718 1242.37019,89.7815661 1242.37248,89.7764804 C1242.98488,88.5002193 1243.69334,87.2905811 1244.38805,86.1045915 C1245.51115,84.1870214 1246.67273,82.2040997 1247.37636,80.0075778 C1248.55552,76.3270433 1248.25124,72.1755712 1247.95715,68.1606507 C1247.82769,66.394635 1247.69389,64.568862 1247.69389,62.8315805 C1247.69389,56.6811668 1247.27518,51.0383077 1246.41355,45.5803146 C1246.20764,44.2750649 1245.95636,42.9438781 1245.69005,41.5346254 C1244.97776,37.7610223 1244.241,33.8587504 1244.35645,30.2283102 C1244.36256,30.0284415 1244.48565,29.8512042 1244.67042,29.7744098 C1244.85467,29.6978698 1245.06797,29.7365212 1245.21426,29.8730728 C1245.47343,30.1154073 1245.74331,30.4065646 1246.00453,30.6878049 C1246.28231,30.9873537 1246.56926,31.2968197 1246.84653,31.552377 C1250.27317,34.7093368 1250.57873,40.970365 1250.80172,45.5419174 L1250.83179,46.1539836 C1251.13582,52.1914944 1251.32339,57.2571244 1250.75406,62.8832006 C1250.15696,68.7854313 1250.6715,73.785964 1251.76248,80.4281668 C1251.82722,80.8228185 1252.02243,81.5282077 1252.24822,82.3447198 C1253.00077,85.0660878 1253.5413,87.2247211 1253.1022,88.1953305 C1252.25688,90.0640777 1249.40441,90.2629293 1247.11183,90.4223666 C1246.70306,90.4511009 1246.31442,90.4780552 1245.977,90.513401 C1245.97038,90.5139095 1245.96554,90.5184867 1245.96426,90.5250981 C1245.57537,92.7348428 1244.39875,95.2235392 1243.25552,97.6417984 C1242.90919,98.3738876 1242.58248,99.065291 1242.28227,99.7388945 C1241.51493,101.460919 1241.14974,103.380015 1240.79627,105.236048 C1240.40228,107.305935 1239.99504,109.446005 1239.02765,111.318821 C1237.83855,113.620618 1235.06431,115.895968 1232.59461,117.314884 C1232.59104,117.317172 1232.58849,117.320478 1232.58747,117.324292 C1232.25694,118.73151 1232.13946,119.955643 1232.34588,120.825047 C1233.11475,124.068209 1237.27712,126.080374 1240.62145,127.697124 C1241.49174,128.118221 1242.31336,128.515416 1243.01953,128.906253 C1245.69362,130.38696 1247.58329,132.713931 1249.41078,134.963853 C1250.38607,136.164845 1251.30708,137.299215 1252.30148,138.244395 C1252.5999,138.527924 1252.76249,138.888756 1252.91973,139.237636 C1253.09558,139.627457 1253.26173,139.995663 1253.60705,140.249949 C1253.91821,140.479569 1254.22607,140.956101 1254.70288,141.714636 C1255.01761,142.216087 1255.60401,143.149571 1255.85172,143.259677 C1256.83593,143.595334 1257.29414,144.531869 1257.69858,145.358299 C1257.93762,145.846528 1258.16673,146.314922 1258.47713,146.643714 C1258.48375,146.65058 1258.49497,146.650071 1258.50057,146.642443 C1260.06583,144.466009 1262.41065,141.233272 1264.69686,139.215768 C1264.68004,139.143042 1264.65558,139.069553 1264.62347,138.994793 C1263.8625,139.124479 1263.09669,139.325619 1262.30744,139.532608 C1260.52251,140.001257 1258.67693,140.485672 1256.65652,140.179257 C1256.46819,140.150777 1256.31171,140.01982 1256.25055,139.84004 C1256.18939,139.66026 1256.23348,139.461408 1256.36523,139.324348 C1257.43252,138.214135 1259.11653,137.262597 1261.39255,136.480414 C1261.40402,136.4766 1261.40631,136.461343 1261.39586,136.454731 C1259.35328,135.17669 1257.91392,132.959571 1256.51916,130.810346 C1255.38255,129.059333 1254.20695,127.248563 1252.73395,126.001799 C1252.39475,125.714711 1252.03313,125.395836 1251.6557,125.062213 C1250.1957,123.773492 1248.541,122.312619 1246.99944,121.656561 C1244.9008,120.763001 1243.6834,121.28505 1242.27386,121.888979 C1241.33272,122.292022 1240.35921,122.709051 1239.07046,122.75584 C1238.92291,122.760671 1238.77535,122.700405 1238.67444,122.589028 C1238.57352,122.477905 1238.52663,122.328131 1238.54676,122.179373 C1238.70527,121.006861 1239.32149,120.053289 1239.91757,119.130994 C1240.46395,118.285239 1240.98333,117.481441 1241.13598,116.551517 C1241.05163,116.483623 1241.03277,116.468366 1240.94841,116.400471 C1240.09596,116.775797 1239.34493,117.361164 1238.55415,117.977298 C1237.70781,118.636916 1236.83242,119.318911 1235.79877,119.745857 C1235.61375,119.822143 1235.40223,119.782728 1235.25723,119.648466 C1235.17924,119.585657 1234.8324,119.340271 1234.74524,119.288397 C1234.51333,119.172188 1234.40452,118.898831 1234.49728,118.653953 C1235.15605,116.916672 1237.08472,115.281868 1238.69355,114.051124 C1238.84442,113.935678 1239.046,113.911012 1239.22031,113.987044 C1245.00375,116.50066 1250.5033,120.395558 1254.64885,123.50878 C1256.01431,124.534315 1256.84026,125.739122 1257.63894,126.90426 C1258.18559,127.701192 1258.70165,128.454133 1259.38616,129.170202 C1261.62752,131.515736 1263.99298,133.809649 1265.80289,135.546422 C1265.93897,135.67687 1265.99147,135.871908 1265.93948,136.053214 C1265.8875,136.234265 1265.73969,136.371834 1265.55492,136.41074 C1264.99732,136.52822 1264.46139,136.65282 1263.94787,136.784794 C1263.93564,136.787846 1263.9336,136.803866 1263.9438,136.810986 C1264.44533,137.174106 1264.83754,137.531886 1265.12653,137.890429 C1265.12959,137.894498 1265.13392,137.896278 1265.13902,137.895769 C1265.66374,137.836775 1266.19433,137.814907 1266.73154,137.849998 C1266.91885,137.862204 1267.09954,137.96341 1267.18236,138.131493 C1267.30673,138.383998 1267.20657,138.674902 1266.9739,138.803824 C1266.57711,139.023782 1266.164,139.316465 1265.74274,139.662802 C1265.73994,139.665091 1265.7379,139.668651 1265.73765,139.672465 C1265.63571,140.801749 1264.65966,141.769307 1263.55185,142.867314 C1262.54394,143.866149 1261.40172,144.99823 1260.85126,146.381799 C1260.42006,147.465312 1260.48479,148.84583 1260.5536,150.307466 C1260.60686,151.448447 1260.66242,152.627825 1260.46186,153.688706 C1260.38948,154.072169 1260.31838,154.468855 1260.24575,154.872915 C1259.93637,156.594939 1259.5885,158.53031 1258.99905,160.187745 C1258.99676,160.193848 1258.9993,160.200968 1259.00466,160.204783 C1259.13106,160.29302 1259.25389,160.372103 1259.37469,160.443557 C1259.69605,157.819072 1260.82705,155.618482 1261.92212,153.487311 C1262.68843,151.996178 1263.48074,150.453934 1263.98457,148.782259 C1264.08116,148.461858 1264.19941,148.016604 1264.33626,147.500403 C1265.42088,143.414791 1266.76696,139.008016 1269.02896,138.434093 C1269.88371,138.216933 1270.74509,138.557676 1271.58913,139.447168 C1271.71018,139.574819 1271.75529,139.75816 1271.71783,139.929803 C1269.89518,148.274704 1267.28761,155.217727 1263.74731,161.154795 C1263.68895,161.252441 1263.59899,161.329998 1263.49349,161.373226 C1262.90836,161.612001 1262.36223,161.793052 1261.83063,161.886884 C1261.81686,161.889427 1261.81355,161.907481 1261.82604,161.914093 C1263.07248,162.583119 1264.83677,162.956919 1266.769,162.909876 L1444.45118,162.909622 C1444.71188,162.909622 1444.95832,163.086351 1444.99476,163.344197 C1445.0391,163.657985 1444.79598,163.926766 1444.49017,163.926766 L1266.78175,163.926766 C1263.87142,163.999491 1261.33623,163.189591 1259.99039,161.814921 C1259.98861,161.813141 1259.98683,161.812124 1259.98453,161.811615 C1259.37928,161.640481 1258.75516,161.312198 1258.07626,160.783792 C1257.8943,160.642409 1257.82982,160.398803 1257.91316,160.184185 C1258.55078,158.542515 1258.91826,156.498057 1259.24217,154.693389 C1259.31531,154.286278 1259.38718,153.886794 1259.46032,153.500025 C1259.63871,152.556625 1259.58621,151.437512 1259.53499,150.355271 C1259.4779,149.13241 1259.41878,147.875984 1259.67311,146.757125 C1259.51231,146.980134 1259.3594,147.192463 1259.21669,147.39106 L1259.01791,147.667215 C1258.86322,147.882595 1258.56862,147.950744 1258.33773,147.819532 C1257.55026,147.372752 1257.14251,146.539965 1256.78292,145.80457 C1256.41951,145.06231 1256.10554,144.421255 1255.51813,144.220878 C1254.99085,144.041352 1254.53213,143.35834 1253.83896,142.254739 C1253.55786,141.807704 1253.17305,141.194621 1253.00128,141.067986 C1252.44139,140.655789 1252.19139,140.100937 1251.99032,139.655174 C1251.86238,139.371645 1251.75204,139.127276 1251.59836,138.980808 C1250.55656,137.990618 1249.61542,136.831329 1248.61872,135.604399 C1246.85265,133.429491 1245.02618,131.181095 1242.52488,129.795745 C1241.84368,129.418385 1241.03404,129.027039 1240.177,128.612553 C1236.63823,126.901717 1232.23426,124.772581 1231.35377,121.05899 C1231.15092,120.203317 1231.19959,119.129977 1231.40958,117.956701 C1231.41162,117.945258 1231.40066,117.93585 1231.38996,117.940427 C1231.16366,118.039598 1230.92207,118.134956 1230.66824,118.228279 C1230.66442,118.229804 1230.66136,118.232856 1230.65958,118.23667 C1230.47048,118.713965 1230.30585,119.186174 1230.30509,119.56506 C1230.30126,121.793622 1231.16876,123.999806 1232.08721,126.335677 C1233.06939,128.832765 1234.08469,131.414784 1234.06914,134.196672 C1234.06583,134.766273 1234.0564,135.304087 1234.04748,135.821813 C1234.00798,138.097672 1233.97714,139.89522 1234.48199,142.242533 C1234.56226,142.616588 1234.64713,142.984539 1234.73097,143.348168 C1235.206,145.405087 1235.65529,147.351646 1235.13388,149.583514 C1235.13312,149.586565 1235.13337,149.589871 1235.1349,149.592922 C1235.96187,151.218572 1235.70422,153.598943 1235.49551,155.528464 C1235.43485,156.08891 1235.37751,156.618588 1235.35483,157.06308 L1235.32654,157.631155 C1235.29494,158.278312 1235.2636,158.842319 1235.21569,159.336142 C1235.23939,159.332836 1235.26411,159.331819 1235.28653,159.33131 C1235.53959,159.33131 1235.75443,159.516685 1235.79087,159.767156 C1235.79444,159.792839 1235.79622,159.818776 1235.79597,159.844205 C1235.79775,160.070011 1235.64841,160.273948 1235.42568,160.337011 C1235.3556,160.357354 1235.27965,160.359897 1235.20804,160.356846 C1235.14382,160.408211 1235.1005,160.44254 1235.03577,160.493906 C1234.65248,162.08777 1233.70573,162.667796 1230.93455,163.219596 C1227.70338,163.863448 1224.53235,164 1221.43344,164" id="Fill-1" fill="#C8C8C8"></path>
                    <path d="M941,162.587651 C937.588912,162.587651 934.321467,162.58816 931.192326,162.588923 C930.149195,162.589178 929.1803,162.685383 928.186745,162.744176 C921.098128,163.115 914.233748,161.84244 907.211995,162.346883 C906.350134,162.387605 905.486748,162.425781 904.630226,162.477956 C903.761246,162.509516 902.894554,162.549983 902.030151,162.600122 C901.085663,162.600631 900.162277,162.600631 899.259992,162.600885 C856.844987,162.607757 860.280991,162.46294 858.991504,160.855698 C858.400405,160.119395 858.028965,159.383092 857.838034,158.669695 C857.793288,157.515738 857.539052,155.988667 858.539218,154.847435 C858.887013,154.306598 859.313367,153.830406 859.838874,153.4606 C861.940137,151.980868 865.033684,151.991812 866.638169,155.008032 C870.123749,161.561204 859.253113,159.737627 860.12133,156.936469 C860.70887,155.041628 864.87682,158.634318 866.323933,148.492783 C866.873338,144.64329 868.456976,139.063117 868.929093,135.26071 C865.514699,134.617049 857.845915,130.340995 858.605573,134.777646 C858.852691,136.220983 858.997606,138.692803 859.132351,141.303077 C859.177605,142.173253 859.221334,143.058954 859.267605,143.92684 C859.318706,146.571727 859.572942,148.862334 860.081415,151.407453 C860.335651,150.643917 860.335651,149.880382 860.500396,149.053727 C860.580227,148.226054 860.626752,147.355878 860.649125,146.46076 C860.783107,141.089541 860.042263,134.819386 860.441922,131.479681 C867.890537,131.377622 872.703231,134.852727 881.760907,132.652981 C883.770391,128.002031 882.395227,123.975907 881.849382,118.975003 C881.286757,113.822919 882.275482,107.412783 880.657268,102.49765 C877.781347,93.7600021 855.292874,103.632264 848.391884,95.5889245 C843.993088,90.4620371 858.149728,91.8796683 862.435389,94.2702984 C862.317932,92.6009549 862.461321,90.9206675 863.193776,89.6058591 C867.170794,95.3557916 881.587772,101.005192 881.520654,90.1067385 C882.814463,91.5485483 884.248101,89.5300145 884.097847,87.2009763 C884.00378,85.7505131 881.993279,83.4331824 881.414638,82.0040981 C879.230493,76.6094642 878.886003,65.5257262 876.825164,53.9286377 C876.753469,56.1461997 877.810584,62.4453689 880.669471,65.1103628 C887.25292,71.2466443 887.64241,60.2771821 887.040633,57.2154041 C885.793858,50.8744951 881.0943,43.3969359 877.271857,37.1257631 C872.46552,56.9723453 842.690381,38.8541533 841.997587,34.8086869 C843.718258,39.9953846 844.798254,40.2977447 842.231993,43.6094533 C838.291838,48.6938372 822.431815,44.480902 816.01667,48.4143832 C812.216092,50.7449485 814.204983,49.2316209 814.35905,53.7245191 C812.459142,50.2552676 807.859753,44.5526744 805.862472,50.8772947 C805.231458,52.8764855 804.985866,57.0410635 808.245938,60.0010367 C813.388121,60.6001577 812.639904,58.3357655 814.771421,57.8992776 C814.944047,66.240141 842.397246,54.4900909 847.144092,62.8541149 C849.604591,67.1887068 849.269508,75.4341283 849.239762,80.4100902 C849.227559,82.4472033 848.489511,86.1513693 849.630523,85.9867001 C842.306738,88.5190933 843.951139,83.3639551 841.676486,78.3811215 C841.594876,88.4666639 833.597619,83.4174026 830.12704,83.4112943 C824.33935,83.4016229 813.782696,89.0332073 811.651687,75.7110373 C810.987368,71.5591849 809.191697,68.2113356 808.713987,64.2503671 C805.552304,38.0310619 809.233646,26.7065556 802.58435,27.6006558 C801.809183,21.9288585 819.679453,18.8238135 821.575293,16.5253167 C822.087833,15.9040532 821.226989,14.5161999 821.649784,13.8626133 C824.835365,8.93449972 828.001878,6.58204638 834.042787,8.09130185 C843.887834,10.5511592 839.72268,18.7362614 831.071019,15.355071 C829.303568,14.6643258 823.670454,15.2494486 822.209358,13.9720534 C821.78097,13.597921 819.303183,8.27455041 819.687588,7.89125551 C829.490178,-1.88530949 835.340155,3.89516442 839.689884,6.37512822 C846.168079,10.0683502 839.88107,12.1596743 835.244308,11.8484063 C832.453302,11.6610855 824.858246,8.44889105 824.983585,13.1731406 C825.07511,16.6243218 827.128577,17.3382276 839.72268,18.7362614 C841.334539,18.9151833 842.887668,18.0437346 844.555712,18.3486398 C847.16494,18.8255951 853.275763,22.9728662 853.529746,26.1547738 C853.835338,29.9874683 851.100263,28.4161119 850.381792,31.9192135 C852.382123,31.491379 854.094404,29.2605823 855.938634,29.2025536 C858.844555,29.1114384 858.392015,31.9612079 861.674714,33.2044985 C866.105036,34.8819863 873.090432,30.0719662 875.60483,35.550589 C873.874243,34.5730089 869.202142,33.8283071 868.722653,31.5097038 C868.219519,29.0783518 873.090941,28.2196287 872.174928,25.1140747 C865.602156,2.82316036 848.523578,18.684341 849.239762,20.7181454 C843.548682,21.329992 845.467912,23.0291134 839.258699,24.263496 C813.251596,29.4333959 805.24239,13.3268658 797.774199,47.6925875 C796.746321,52.4214183 794.434551,55.476579 795.778698,60.4975894 C796.745304,64.1073315 798.834364,67.3297064 799.533514,71.0303092 C800.367663,75.4465994 800.28046,78.1344994 803.71926,81.143848 C797.63564,85.2778845 803.119517,87.0594677 803.136297,88.6896163 C803.259601,100.51322 802.254605,132.936762 802.114775,146.079501 C802.112233,146.300926 800.71495,146.185887 800.71495,148.524342 C800.71495,153.899888 799.677157,153.954608 804.090445,153.526264 C804.58341,151.004815 804.749426,150.034361 804.74968,148.31157 C804.758324,93.4515336 801.671641,208.661683 805.444508,69.7758201 C805.391118,71.668116 804.538156,72.6467142 802.120877,71.5742011 C804.57502,70.6470143 804.796205,66.9606642 804.990442,64.6110105 C808.628309,70.8381527 805.553321,76.7499548 806.50569,83.0239272 C807.535093,89.8056509 809.513306,87.7558122 814.514642,85.0248997 C801.926894,91.4963734 808.466106,100.797256 810.377455,119.080117 C811.803975,132.726535 821.235888,145.489543 815.687943,148.516452 C816.495906,151.106365 820.282756,149.902524 821.672411,152.184987 C812.457871,151.735519 815.733451,157.917358 820.596483,155.742554 C820.818177,155.643549 821.436988,155.458518 822.05224,155.172702 C822.667492,154.887139 823.273337,154.50079 823.47215,153.99762 C823.59215,153.693988 823.416472,153.018004 823.218931,152.312752 C823.021389,151.60699 822.821559,150.872978 822.938,150.45456 C825.165618,142.437691 826.109597,126.223247 823.859606,120.545596 C820.206739,111.32743 823.383167,113.425372 825.416041,103.580598 C826.987475,95.9706923 828.057048,97.292627 822.706899,91.8603253 C825.224347,91.1161326 825.100788,92.8849902 828.003658,92.7187939 C828.853061,95.9075733 826.998408,101.178005 826.516884,106.749525 C825.905191,113.832336 826.496799,119.309941 826.712138,126.337014 C826.908154,132.735188 827.146119,137.737111 825.994937,143.856849 C825.931632,144.193823 825.771209,144.833156 825.575955,145.621125 C825.380702,146.409094 825.15011,147.345189 824.942907,148.273393 C824.488333,149.880382 823.725624,151.916477 824.996805,152.934524 C828.301877,155.988667 836.437439,156.497691 838.217093,151.661965 C839.488274,148.35331 838.979802,144.535632 839.690392,140.962031 C839.763612,140.340004 839.848273,139.683617 839.946408,138.990836 C840.338949,136.219965 840.928269,132.923273 841.855469,128.985465 C842.589703,130.528061 843.404785,130.97702 847.703158,131.590394 C847.843496,132.150829 848.098495,133.503305 848.363664,135.221515 C848.496121,136.080493 848.63112,137.031095 848.755442,138.019873 C849.149254,141.226977 850.674672,145.299168 848.640781,148.098798 C847.115364,149.880382 840.50522,148.862334 841.522165,152.680012 C843.047583,157.515738 849.911963,160.060857 854.488216,157.77025 C855.759398,157.006714 856.267871,154.207084 854.742453,152.680012 C852.708562,151.152941 847.3696,154.207084 848.386545,151.152941 C848.895018,149.880382 852.708562,151.407453 854.23398,149.62587 C855.759398,148.098798 855.759398,145.808191 855.831347,143.526492 C855.900245,142.939333 855.960245,142.320361 856.093464,141.576677 C856.226684,140.832739 856.367785,140.027208 856.51931,139.154996 C857.236002,135.030122 857.753627,131.656058 854.548979,130.772647 C852.06509,130.088265 842.202247,129.568552 841.621317,126.095737 C839.736663,114.828241 849.239762,110.789138 845.031134,88.907224 C844.756559,98.223886 838.858277,122.183635 835.734984,137.884473 C835.527019,138.93128 835.331002,139.941438 835.149986,140.90782 C833.132367,146.826239 834.657785,152.170988 837.70862,157.77025 C839.742511,161.078904 830.335768,161.84244 826.250444,160.140774 C825.401041,159.857756 824.604519,159.535035 823.918589,159.173374 C823.215117,158.824947 822.644611,158.425364 822.269612,157.984549 C822.552323,157.371175 822.943593,156.90211 823.415455,156.557501 C823.858335,156.216709 824.352316,156.004446 824.886212,155.898315 C829.573059,155.734155 833.640839,159.042809 836.945911,162.096952 C833.640839,164.133047 829.573059,162.605976 826.020869,163.219095 C825.266041,163.25269 824.472061,163.283995 823.639183,163.31301 C817.807257,163.515347 810.058388,163.605953 800.419527,163.631659 C799.730801,163.633186 799.09699,163.634713 798.439281,163.635985 C788.554065,163.746443 778.697069,163.648711 768.840328,163.56854 C767.854654,163.56065 766.868979,163.55276 765.883051,163.545379 C757.878421,164.133047 749.742859,162.860488 741.946957,163.428049 C741.06374,163.513311 740.229083,163.588392 739.240612,163.606207 C737.263416,163.642603 735.285203,163.68816 733.305465,163.745425 C732.476401,163.785638 731.647845,163.824833 730.819797,163.859956 C725.851511,164.070946 720.900768,164.136101 715.957143,163.375365 C715.144858,163.359076 714.307658,163.356531 713.465373,163.35475 C710.939027,163.348387 708.374545,163.343042 705.772436,163.338461 C704.826169,163.336679 703.875834,163.335661 702.941515,163.352968 C697.115944,163.624023 691.268509,164.133047 685.166838,163.115 L685.166838,162.096952 C681.353294,161.333416 677.793985,162.351464 673.998237,162.572126 C673.598832,162.592487 673.219512,162.609793 672.708497,162.618192 C655.838392,162.724324 655.856952,162.892556 634.048053,162.764537 C630.326542,162.742649 626.856979,162.842926 623.012672,162.53064 C623.015977,162.513079 623.02157,161.833787 623.018774,161.81648 C622.781317,159.070806 628.478244,159.17261 632.494161,160.138992 C636.147028,161.018331 639.09922,162.278419 640.167775,160.819811 C642.310987,157.893943 639.042525,158.072865 638.710747,154.693456 C638.443545,151.972724 641.515482,143.156941 640.362012,137.384866 C640.027691,135.712214 638.263291,128.265705 638.807865,126.688241 C639.574642,124.466606 644.692927,125.112558 646.828512,125.114594 C646.965037,121.999623 643.993777,105.427845 644.927333,101.697464 C645.725889,98.5058852 648.013507,94.1692572 646.718428,89.8209216 C646.187582,88.0393384 643.121747,88.9059514 641.624803,89.347784 C638.273715,90.3368172 636.048384,88.8334155 638.524392,88.2966499 C640.745146,87.8151135 646.655377,86.9062515 646.093006,84.38862 C645.561907,82.0109699 643.981828,80.7770963 643.081832,78.6514131 C636.951177,64.1714685 645.106824,52.6448797 636.895754,50.3023523 C633.859664,49.4362484 639.924471,56.0441405 640.840484,58.9987689 C642.784121,65.2691782 646.092498,64.6624219 640.185317,66.8698034 C636.280502,68.3289201 631.518656,74.2587925 627.624773,75.5926893 C626.334778,76.0345219 625.283257,75.3320691 624.014363,75.1567104 C622.336149,74.9245956 620.447174,75.0612684 618.787265,74.537483 C617.396846,76.9505102 621.412255,75.7497231 621.577,78.2350316 C619.592177,79.2143934 615.889479,76.186211 617.04117,80.2606917 C617.962014,83.5184438 623.141316,84.9643258 625.719272,83.4553249 C629.099598,81.4767495 630.752134,79.5467859 634.519153,78.1128659 C639.905403,76.0627727 644.557419,73.4629338 648.854521,70.608583 C651.971967,68.5378743 651.135021,66.7135331 650.075618,63.0928471 C648.989266,59.3805367 648.008931,52.6705854 646.935037,48.9445314 C645.489704,43.9301383 644.328861,38.2942271 638.390409,36.7157444 C637.612192,36.5088263 635.572454,32.9296256 635.148896,31.3597963 C631.913994,6.29852014 617.673964,17.9851968 617.738286,17.870412 C611.512801,17.2924155 608.136289,25.269327 610.012044,32.5893433 C611.248141,37.4133615 607.458495,39.426805 608.136289,44.3694258 C608.757897,48.9022825 613.400506,45.9613977 614.670671,53.8008727 C616.710663,51.2231763 614.655162,45.9957568 617.521168,43.4394394 C619.835989,41.374839 621.567593,49.7719496 623.278095,47.1217173 C626.230033,42.5481388 630.474508,39.1972353 629.094259,35.2703714 C626.796217,37.3560963 626.129863,39.6278694 624.043092,39.6579018 C621.914117,39.6884432 621.135137,38.1875867 619.809803,37.0206497 C618.870146,37.4594282 618.454469,37.6118808 618.063962,36.8681971 C618.286673,32.0973718 616.507019,33.4971872 615.758039,30.1798793 C615.380244,28.5057001 616.369477,27.2109981 617.746676,25.7752966 C618.744807,24.734852 619.149043,25.0593547 620.949036,25.2046809 C622.327251,25.3159026 624.48826,27.2695359 625.888847,27.016551 C626.812742,26.8495912 625.974271,24.7664115 626.779946,24.9435517 C629.580104,25.5579434 630.708405,28.3573196 628.220194,30.5171075 C630.053747,32.8827955 630.966455,34.6704869 634.552458,36.2354805 C634.220171,43.7649601 628.319855,46.6826843 622.559369,50.8039953 C620.76802,52.0857171 617.815065,54.4875458 617.4421,56.8873383 C616.762273,61.2634157 618.79057,63.9986549 622.559369,64.8922461 C617.358711,66.5506455 614.482281,69.7002301 613.284066,74.4977791 C611.525259,81.54165 616.903374,88.554216 618.881332,93.8686786 C619.392856,103.335248 618.48752,108.482751 616.660832,118.131042 C615.53482,124.080766 623.035045,120.589881 627.494604,122.813043 C630.970523,124.54576 631.965604,127.207699 632.361704,130.852564 C632.903227,135.838197 633.931104,142.395187 633.027803,147.365804 C632.836617,148.416684 632.82238,149.216615 632.111281,149.951899 C632.688397,143.219042 631.47569,126.821605 625.888847,130.675169 C628.220194,133.20349 632.267636,149.098012 629.191377,156.930106 C628.119262,159.660001 618.598621,158.273674 618.020742,158.583415 C617.146678,153.818444 620.634291,155.025085 623.23462,154.311179 C626.99503,153.279133 629.324088,152.974483 627.185707,148.695883 C625.554781,145.433041 613.924233,131.84796 612.919745,126.961841 C616.643798,124.093492 624.189532,127.640624 628.433244,125.958555 C625.116223,124.519036 612.946694,122.772321 609.764418,124.743515 C611.290853,120.888424 617.826506,102.572476 616.46685,94.5988732 C613.923978,81.701738 610.245688,86.9846412 603.493934,88.5101854 C600.948012,89.0856368 601.138689,90.0222405 599.963609,91.724416 C599.473695,92.4339951 599.758949,93.4082666 599.124375,94.2277949 C598.737936,94.7268927 597.570991,94.7029686 597.048281,95.0730289 C595.444813,96.2084064 595.472525,97.0144455 592.836857,95.4810114 C590.563221,94.1583132 589.353311,90.3202739 591.787369,88.9046788 C591.817623,90.031912 592.079741,90.4131708 591.959742,91.5398949 C594.422529,88.6175894 591.399913,87.5499121 595.823879,86.2661541 C598.319971,85.5418133 599.116493,84.753081 601.610297,83.9429697 C603.00097,83.4914656 606.794176,79.4668692 609.604758,77.7596034 C610.918905,76.9611997 612.449408,78.3602515 611.793732,79.7519225 C609.655097,84.2901239 604.924776,86.1730028 599.843609,87.1979221 C601.474027,87.9947989 600.408777,89.143411 598.687851,90.6177983 C598.179887,89.8575713 598.2587,89.3668724 598.218022,88.4236514 C596.608961,90.5612967 594.362529,93.4604416 593.907954,88.8000745 C593.735328,87.0312169 594.020327,84.197227 594.221428,82.4090265 C594.458376,80.2978505 595.135407,70.3507625 595.709981,68.2953245 C597.115908,63.2679513 599.714203,66.1665871 596.41269,62.170496 C594.416681,59.7549237 590.535764,54.6863196 589.216278,47.8422405 C588.877635,46.0850904 594.127614,38.9432324 595.247017,41.3448066 C596.679893,47.3342348 603.267918,59.7337992 601.97233,64.3699877 C600.925639,68.1151301 602.055465,74.0783435 602.823767,71.6556449 C604.13461,67.5213539 605.591638,62.0707274 604.088339,58.110777 C603.272749,55.9624421 598.371835,44.160217 597.572262,42.4794206 C597.090484,41.4664633 599.171408,42.0790734 598.158023,39.2832603 C593.893717,26.470114 583.579604,32.3536653 582.144695,28.0111835 C581.424443,25.8315437 579.277164,28.4471623 576.858614,26.8002159 C575.483704,25.8643757 573.991845,23.8570405 573.514389,22.26176 C573.112442,20.9176828 573.083459,21.1039855 572.646935,19.9294131 C572.101344,18.4613886 571.514566,20.0281637 570.863213,18.2196023 C570.21847,16.4303837 570.408384,13.2197163 571.812531,12.0861204 C574.191929,11.5292484 572.15931,15.0885971 574.096082,15.3344556 C575.525398,15.515668 574.191929,11.5292484 576.534716,9.22871546 C579.075046,8.19997843 582.015543,11.0153889 584.303669,11.9690449 C589.900682,14.3024099 591.851945,9.63898862 587.718063,5.54211082 C584.559685,2.41186916 578.135134,1.08458968 574.845825,2.40347026 C572.788036,3.22859779 571.026687,6.41839524 571.445923,9.04801202 C571.547617,9.68709137 572.437444,9.77718857 572.668291,9.17246834 C574.983875,3.1087227 578.751657,3.72387792 583.409266,5.03817729 C590.272375,6.97501273 586.802558,20.4824674 583.69935,25.1894102 C582.003339,27.7620164 581.687069,29.6718735 581.62046,31.4330958 C581.456986,35.7541985 579.22174,37.3563508 575.783448,37.0361749 C572.148123,36.6976741 568.506951,34.4747673 569.946437,25.5095862 C567.712208,31.3440166 564.081968,28.5983424 560.376982,30.0017209 C556.783098,31.3628505 556.08827,36.2263181 555.600899,38.7775452 C555.153952,41.1185455 555.459544,40.3046165 557.672671,40.7581567 C554.758614,41.7309011 554.804123,52.1086232 555.23607,57.2940483 C555.316917,58.2637386 554.845817,60.0674643 553.710652,60.8572147 C549.025077,64.1172574 543.220608,70.8401888 541.759004,72.759463 C539.44825,75.7934991 538.098764,75.629848 536.295466,78.9275585 C535.28691,80.7714971 536.67682,85.0358437 538.570626,86.6568299 C539.107065,87.1159693 539.076556,88.2933413 540.33706,88.0731885 C541.597564,87.2218463 537.891815,82.9908407 541.984257,80.0825334 C542.913491,81.0425522 541.391886,81.7098824 541.063922,83.0689758 C541.016634,83.2646955 541.288667,85.6377643 542.015782,84.6540759 C544.041791,81.9129829 546.3378,82.3884111 545.123567,76.0467385 C544.683992,73.7505322 553.649636,72.6706383 558.795378,67.4745237 C560.174865,66.0815801 560.742828,64.0151982 561.054522,62.1455539 C562.953922,50.7411308 562.38011,47.9781498 560.964523,41.6336776 C565.405522,44.4411982 563.259768,52.7746808 563.506631,57.5332895 C563.830274,63.7662855 558.468176,78.7768874 564.748067,79.5943796 C568.952373,80.1415802 574.806672,81.0074296 578.927334,81.1794796 C581.832493,81.3003728 590.82661,81.0519692 590.796865,77.1808434 C590.768136,73.4293382 588.997889,66.7588363 588.157638,63.4522179 C587.080947,59.2130679 589.767716,56.8982823 588.376789,52.7652639 C578.735386,57.2782686 587.834503,71.3408137 588.709076,77.183134 C590.059071,86.2048168 585.187649,98.8250431 581.958848,107.460122 C581.318935,109.172224 580.105211,112.676598 578.1631,113.701517 C576.204972,114.735344 572.519054,111.392076 570.723637,112.897769 C569.972369,113.527686 572.910832,113.533539 574.461674,114.503739 C577.569967,116.448718 574.298708,117.736294 574.423792,120.691177 C574.470572,121.798813 574.678283,126.097519 574.42786,130.303582 C574.119217,135.480608 567.725937,142.055668 567.738903,146.880195 C567.742717,148.334731 569.329405,152.703427 568.50568,154.181632 C567.342803,156.394104 566.60806,155.749426 562.713923,157.245701 C560.462914,158.110532 558.598345,158.637881 556.133524,158.711944 C552.264556,158.828256 544.998991,155.589847 553.33845,152.229272 C562.600025,148.497109 562.580194,144.649399 563.652817,129.840116 C564.406882,119.425235 563.439767,118.509756 564.309255,115.152489 C564.637729,113.884766 564.758745,113.076181 565.15815,111.497699 C561.799943,110.594691 568.403477,99.4740484 568.586781,94.5892018 C568.792204,89.1169418 563.785274,87.3401943 563.203582,81.7824183 C562.818159,89.6923931 565.628233,97.0811276 566.205095,105.071528 C567.370769,121.213435 573.050662,117.232615 577.958694,125.200364 C581.552578,131.03454 585.970951,151.45072 586.098069,145.338362 C586.24273,138.388152 587.971537,133.747637 587.7773,129.369014 C587.586877,125.078707 587.763826,120.724009 581.381986,113.856515 C576.702512,118.978312 580.132669,122.876416 580.020296,129.714387 C579.931314,135.121237 581.1608,138.383571 579.539535,144.807705 C579.019876,146.86747 574.366589,149.769414 572.133378,150.760484 C570.855077,151.3283 570.127962,150.306689 570.221266,151.764024 C570.37813,154.220064 570.37813,154.220064 572.569393,154.367172 C577.582424,154.703382 578.182168,150.381006 582.499863,152.662451 C585.365869,154.176542 587.828147,152.220364 588.137044,152.782581 C589.456277,155.1839 580.152499,160.348455 577.057935,160.498617 C562.919091,161.18529 530.97252,161.37083 498.621713,161.366757 C498.03341,161.366503 497.445108,161.366503 496.856805,161.366248 C488.642176,161.333416 480.506614,161.333416 472.386306,161.327563 C471.841478,161.326035 471.27987,161.324508 470.714194,161.322727 C470.148518,161.3212 469.584114,161.319673 469.021743,161.317891 C468.474372,161.316364 467.930815,161.3156 467.401495,161.3212 C455.845692,162.351464 444.659295,160.315369 433.18256,161.173074 C432.153157,161.168238 431.147907,161.163148 430.16808,161.158567 C420.371338,161.110464 413.133739,161.07356 409.933921,161.07356 C408.937315,161.092139 407.28605,161.108937 405.059448,161.124208 C404.502925,161.128025 403.911063,161.131334 403.299116,161.127007 C395.083216,160.315369 386.947654,161.333416 378.717771,161.502921 C377.523877,161.46958 376.373712,161.397044 375.292953,161.210996 C364.517402,161.224994 351.936773,161.231103 338.45691,161.231103 C337.791319,161.231103 337.12344,161.231103 336.453273,161.230848 C327.456359,162.096952 318.303852,160.569881 309.508293,161.22194 C308.802787,161.221686 308.096265,161.221177 307.389488,161.220668 C305.268648,161.219395 303.142724,161.217868 301.015021,161.216341 C300.04638,161.215577 299.077232,161.214814 298.108083,161.214305 C286.524314,161.078904 274.575208,161.078904 262.955338,161.175873 C262.388645,161.17511 261.818901,161.174346 261.250937,161.173583 C240.05602,161.143296 220.648891,161.102829 206.348862,161.056253 C198.2283,161.030038 196.284918,145.835679 197.737878,143.987668 C201.159645,139.634497 202.766672,148.623602 202.476335,151.168466 C201.971421,155.595446 197.619404,162.237952 191.800189,159.920875 C189.314521,158.931333 186.434278,156.919926 185.18191,153.997875 C182.819292,148.484893 182.379209,141.964044 182.281074,136.040789 C182.181667,130.028964 181.953363,123.62799 183.884796,117.805012 C184.707251,115.326067 187.080292,109.612529 190.349009,111.258967 C192.2329,112.207787 193.652809,116.526599 194.249248,118.341778 C195.288057,121.503579 195.062804,124.522344 195.18738,127.796894 C195.448989,134.656753 195.241024,141.499305 193.657131,148.247942 C192.712389,152.272539 191.479597,158.161435 187.208682,160.325549 C182.609801,162.656624 179.887693,154.049541 179.281085,150.710345 C177.756685,142.316797 175.012458,108.130507 187.817832,106.660955 C189.681893,106.447165 194.427976,108.208642 194.430772,110.466417 C194.434078,113.252304 190.351551,107.785643 189.044014,106.722801 C184.179202,102.768196 183.722339,96.3061389 183.056749,90.6030366 C182.796919,88.3773302 187.256732,101.997534 193.623064,103.540894 C198.001013,104.602208 203.55989,94.7380912 205.641322,103.790061 C206.335896,106.811371 202.353793,119.580742 201.789388,123.036504 C201.297441,126.048652 199.620498,133.580422 202.863536,135.529474 C204.286497,136.384889 205.65556,134.914828 206.891148,136.135976 C208.296058,137.524848 207.020808,138.500392 205.616661,139.352497 C196.917712,144.63031 197.76381,136.360456 197.643302,133.063 C197.294744,123.52593 198.598214,114.803554 198.044233,105.279973 C197.908979,102.957298 197.270084,101.391032 198.3033,99.3419567 C200.033886,95.910373 202.998027,93.7628017 199.450414,89.9871179 C197.19788,87.5896159 194.96594,85.7092821 192.849423,83.1007898 C191.514682,81.4558795 187.000717,74.5252664 185.379197,72.5703606 C184.468269,71.4718873 181.918533,68.7198503 180.653199,67.9916918 C179.737694,67.4651067 179.072357,68.8883372 178.142869,68.3650608 C179.274475,65.0574243 178.331513,63.3468499 175.196016,61.6222774 C173.388142,60.628154 175.708048,62.0233881 176.22186,59.984748 C176.327368,59.5655669 177.181348,58.9117259 177.358805,58.2606845 C177.643295,57.2182038 178.470072,51.0847219 177.299313,48.7623009 C176.810671,47.7923561 175.400677,47.0738691 175.012458,48.1514724 C173.71992,51.740599 171.811877,58.5126512 167.542233,57.7661679 C162.185982,56.8305822 158.832351,57.2296568 159.309807,51.2038334 C160.072007,41.5888835 172.013232,39.5153752 177.988548,45.1202359 C182.506581,49.3578587 176.411012,49.9078589 174.525341,53.8085081 C173.7967,55.3152184 173.561277,58.2802819 172.580688,59.5518232 C171.041287,61.5479599 169.389768,59.9895837 169.98163,63.5664937 C170.631458,67.4913215 176.513723,69.5678839 175.577371,73.7047201 C175.332287,74.7871591 174.037716,74.4377143 174.304918,75.9067569 C174.911018,79.238063 180.04354,74.8599495 180.337183,83.7464865 C180.355996,84.3171021 179.456,84.4876251 179.050239,84.1201099 C175.317541,80.7422282 173.545769,80.9796878 171.201201,80.7422282 C171.140693,81.8478278 173.030686,82.3377632 172.182299,83.6031963 C170.090951,83.2812388 166.795795,77.696739 169.885783,76.4995151 C168.670533,75.6578443 167.058421,75.7308892 165.731307,75.0409075 C163.963094,74.121356 163.062843,72.6087919 161.741577,71.187343 C157.943795,67.1001367 154.133556,63.3941892 150.757552,58.8913649 C146.098926,52.6779663 145.529182,51.0147311 139.365986,46.2899725 C139.444799,52.6451342 141.109793,51.5850922 144.67444,55.6300496 C147.397311,58.7195694 154.093386,65.1495576 155.461686,67.6514094 C154.568045,68.959855 152.79551,68.8076569 151.777294,69.9366716 C150.368316,71.4988656 151.372804,76.3669144 151.534752,78.3701774 C151.846192,82.2105073 152.725849,83.3741356 156.413293,84.0167781 C160.475226,84.7245757 172.941957,83.3418126 175.9272,86.7637249 C176.689401,89.8163404 162.513184,87.5323508 158.090235,87.6797131 C155.496262,87.7659927 154.399741,87.5939426 152.754324,89.8163404 C150.249079,93.2005849 152.392037,98.8858714 152.602036,102.636104 C152.986441,109.50029 150.620264,122.637684 157.040494,122.875907 C162.016661,123.060428 172.674755,122.844093 173.782208,123.95122 C173.078482,124.165264 161.596662,143.232531 158.547606,145.674318 C162.816234,133.007007 167.379521,144.928853 163.273605,152.083945 C155.795753,165.116481 151.841361,131.689908 155.594652,128.175608 C157.691084,137.474709 157.667695,147.161177 150.772552,154.373789 C140.928522,164.670322 135.070155,146.895212 134.477784,136.690812 C134.081684,129.863531 135.362781,122.709711 137.480315,116.210241 C138.346244,113.552628 140.142169,106.424259 144.398339,106.71313 C149.877386,107.084717 149.932301,117.426299 150.467722,121.408137 C151.500684,129.088033 152.67246,150.558147 145.741724,152.999934 C135.832355,154.220827 138.881411,114.998255 144.998083,111.51246 C152.938899,106.987748 146.111129,94.4286048 147.959935,85.866825 C148.978915,81.1486837 148.935186,82.5764954 149.173405,77.7008112 C149.321879,74.6578671 149.234676,70.6846821 148.028325,67.8394937 C147.596378,69.8432658 146.915787,77.6705243 146.548924,79.7827184 C146.196044,81.8129597 145.579013,82.5192302 140.552761,81.5482673 C143.37275,82.2827886 145.892486,86.2506289 144.961727,90.2874419 C143.270038,97.6222199 141.489113,104.431176 140.108101,111.869032 C138.941665,118.152421 137.049639,128.839884 134.409395,134.685259 C131.565507,140.981628 132.115675,150.649007 132.783045,153.66141 C133.422704,156.547829 137.05752,155.375293 139.034207,157.556969 C140.065898,158.696164 140.023441,159.229876 139.491324,160.02039 C137.366417,160.682884 136.502776,160.603985 133.161857,160.337766 C131.558389,160.465531 129.353906,158.611921 127.652557,158.266039 C127.769505,160.55181 128.560434,160.730478 123.026473,159.867682 C123.585284,155.594428 122.356306,156.123558 122.343848,153.77085 C122.321221,149.496069 124.032486,151.969415 123.975028,144.134776 C123.945028,140.040698 120.712414,129.922578 125.403836,123.578869 C126.664086,123.590322 128.679163,124.349276 129.665345,123.277781 C131.063645,121.758345 128.397215,121.954065 125.414514,121.815102 C124.239434,113.680138 124.647992,106.372593 125.12138,101.763128 C125.454938,98.5183562 126.532391,95.3188873 124.415874,93.2889006 C122.48139,91.4329999 121.956646,90.7677058 120.800634,88.3452617 C119.811655,86.273026 119.775045,79.773556 123.534183,79.0764479 C120.34911,79.2014133 116.744294,80.6154813 117.890645,76.3399361 C118.6231,73.6082601 121.024616,67.6246857 121.41792,65.1291967 C121.964528,61.6586726 120.093603,55.2566807 119.501995,51.8116078 C118.110814,43.7089675 115.173622,27.5253203 126.885017,25.5821221 C122.093171,18.5105094 131.192797,25.4217796 137.466332,28.1420026 C141.675723,29.9676163 144.979523,26.6324926 144.979523,26.6324926 C144.466474,30.5988058 151.702548,41.5557969 153.821608,44.7942062 C155.313721,47.0741236 147.939851,45.3106108 146.135282,41.0839319 C144.711304,37.7488082 145.696978,33.2421662 143.578681,30.3089168 C142.493855,28.8062786 138.359973,25.9547275 138.72887,23.8852913 C139.295308,20.7059289 145.063676,25.7674067 146.041214,23.277517 C146.607907,21.833162 147.355362,19.4774 147.783241,17.8139103 C149.233659,12.1795262 148.312307,4.39629832 141.347249,3.07410908 C138.621073,2.55668642 134.286344,1.62695451 131.117543,4.57292957 C128.6484,6.86786322 129.089246,15.4802909 129.777972,17.7406109 C132.313725,26.0646766 137.234469,20.9075023 140.25327,16.4072232 C141.317249,14.8211051 144.65588,13.4737192 147.053329,11.3447273 C153.521609,5.6016666 141.590045,0.0515259435 136.84447,0.000878078581 C130.588477,-0.0663130588 129.807209,3.73991217 127.575269,5.47441066 C126.555781,6.26670615 126.179511,3.69002784 123.534183,3.51339659 C122.263255,3.42864413 120.688007,3.27619152 118.831828,6.55532263 C115.157096,13.0471573 120.447754,17.0195787 121.212751,23.6353607 C121.50614,15.2540298 127.337303,9.45701262 126.532391,12.7822104 C124.827991,19.8215001 130.555681,24.1525288 130.196445,25.1107661 C129.094331,28.0478332 126.223494,27.562479 123.788673,29.8373063 C121.501818,31.974188 120.691567,33.3014675 120.447754,36.3515379 C120.095128,40.7655375 120.194789,45.6885609 121.682325,50.4756749 C123.788419,57.2520539 124.81833,67.074431 121.338852,73.2567792 C118.544795,78.2215425 117.73251,83.4133304 118.082848,89.0769834 C118.541744,96.500077 120.183348,93.3769617 115.068876,104.587701 C113.578035,107.856143 111.80677,116.019357 110.395505,119.50617 C110.153726,120.103255 108.98551,118.483286 108.720087,119.064846 C106.699672,123.495135 105.249253,131.340972 105.047898,136.053769 C104.888238,139.797639 102.291977,141.753563 100.695881,145.017677 C98.6548722,149.191672 101.312913,150.490701 99.9196978,154.050813 C100.834694,155.271707 102.569603,155.167357 103.976546,155.560832 C104.39146,154.449633 104.292562,153.91185 105.369253,152.520942 C106.786366,157.094521 105.958318,157.850167 110.353047,158.453105 C112.844055,158.794915 118.614456,159.438575 116.4776,155.560832 C114.548963,152.061294 111.903889,153.882072 111.903889,145.335308 C111.903889,140.436464 113.682526,135.975125 116.325312,131.447104 C119.154708,126.599161 119.404622,126.460198 120.74699,123.40631 C116.479888,121.801358 110.65991,136.719827 109.689999,147.136234 C109.309153,151.225731 114.892691,154.639499 114.804471,157.376011 C114.690827,160.899983 35.6996075,160.171315 0,159.649311" id="Stroke-3" stroke="#C8C8C8"></path>
                </g>
            </g>
        </g>
    </g>
</svg>