<?xml version="1.0" encoding="UTF-8"?>
<svg width="1440px" height="290px" viewBox="0 0 1440 290" version="1.1" xmlns="http://www.w3.org/2000/svg" xmlns:xlink="http://www.w3.org/1999/xlink">
    <!-- Generator: Sketch 51.2 (57519) - http://www.bohemiancoding.com/sketch -->
    <title>illustration-man</title>
    <desc>Created with Sketch.</desc>
    <defs></defs>
    <g id="Design" stroke="none" stroke-width="1" fill="none" fill-rule="evenodd">
        <g id="Innovator's-Cup-Homepage" transform="translate(0.000000, -1210.000000)" stroke="#B8B8B8">
            <g id="option-2" transform="translate(-582.000000, 969.000000)">
                <path d="M0,522.080942 C8.14879339,522.080079 16.2967245,522.080079 24.4455179,522.079217 L32.593449,522.079217 C46.9448107,523.230396 63.3286281,507.708884 76.5581295,518.963705 C78.0585422,520.794381 80.1254902,522.07663 81.4844847,522.07663 C82.9797236,522.07663 85.571816,519.984675 87.9845487,519.763063 C101.2701,520.643477 114.204693,524.955008 126.722791,522.437074 C129.580474,522.262888 132.330369,522.074043 135.321709,522.073181 C165.230799,522.072318 195.140751,522.070594 225.050703,522.068869 C225.44219,521.505783 224.579884,521.505783 224.579884,520.643477 C233.202945,517.194252 241.826007,518.056559 250.449069,520.643477 C257.347518,521.505783 263.383662,522.368089 270.457159,522.361191 C272.881964,522.174071 275.337812,522.066282 278.295522,522.066282 C301.959791,522.064558 325.624059,522.063695 349.288328,522.062833 C352.473687,522.062833 355.296877,522.210287 357.556119,522.33101 C370.309628,524.092702 384.106527,525.817314 397.072162,522.060246 C407.157695,522.060246 417.243229,522.059384 427.327899,522.058522 L437.413432,522.058522 C459.98947,516.331946 481.547125,516.331946 503.967086,524.092702 C519.488597,529.266539 534.147802,524.092702 548.463809,522.149064 C551.721602,522.059384 555.074248,522.052485 558.43638,522.051623 C585.329985,522.050761 612.224453,522.049036 639.118058,522.047312 C638.48685,522.368089 638.48685,523.230396 637.624543,523.230396 C647.109911,518.056559 657.457585,512.020415 668.667566,512.882722 C699.710588,515.46964 729.028998,526.67962 761.286148,524.731671 C764.037767,524.967943 766.789386,525.233533 769.547041,525.484464 C780.575937,526.487326 791.690201,527.254779 803.18733,524.955008 C827.331903,520.643477 849.751863,518.918865 872.643506,525.368053 C874.907059,525.740569 877.162852,526.021681 879.5661,526.099288 C881.969347,526.176896 884.388116,526.104462 886.831029,525.817314 C908.388684,516.331946 932.533257,513.745028 956.67783,518.918865 C959.911478,519.637166 963.139952,520.254577 966.361528,520.781446 C969.355455,521.380749 971.831998,522.021442 974.379251,522.641441 C989.445464,526.67962 1004.10467,531.853457 1020.48849,528.404233 C1056.70535,521.505783 1090.33529,520.643477 1125.91749,521.769649 C1129.14855,521.898995 1132.39513,522.024029 1135.71329,522.024029 C1154.20631,519.736331 1172.78642,518.925763 1191.43293,518.918002 C1197.64843,518.915416 1203.87083,519.003371 1210.10099,519.153412 C1237.78964,521.505783 1264.52114,518.918865 1292.11493,518.918865 C1308.49875,519.781171 1324.02026,526.67962 1340.40408,527.541927 C1347.51811,528.188656 1355.11761,527.380675 1362.37219,525.589665 C1364.7901,524.993812 1367.17006,524.288445 1369.48104,523.490812 C1373.17171,522.368089 1376.62094,521.505783 1380.07016,523.230396 C1402.49012,538.751907 1426.6347,524.092702 1447.33005,516.331946 C1459.40233,511.158109 1471.47462,517.194252 1483.93149,520.538276 C1486.28128,521.112572 1488.84405,521.633405 1491.45598,522.004196 C1494.16189,522.208563 1496.80055,522.115434 1499.39006,521.806728 C1512.33845,520.260613 1524.0753,513.313875 1537.00989,511.158109 C1555.98062,507.708884 1571.50214,521.505783 1588.74826,521.505783 C1589.61057,521.505783 1589.61057,517.194252 1591.33518,514.607334 C1593.9221,516.331946 1597.37132,518.056559 1600.39629,519.31725 C1602.75556,520.014856 1605.21227,520.230432 1607.48359,519.61992 C1607.04295,517.423626 1603.97314,515.420489 1600.50667,513.676906 C1587.88595,508.571191 1574.95136,499.085823 1572.79301,484.398162 C1572.95167,482.487291 1573.57339,480.528131 1574.628,478.58708 C1575.68173,476.644304 1577.16662,474.720499 1579.09302,472.785484 C1582.04642,469.817426 1591.34897,468.154038 1595.37336,466.998547 C1610.72327,462.593025 1626.05076,468.42049 1639.6226,475.425866 C1646.22183,478.832837 1653.3074,482.228599 1659.55998,486.099492 C1666.03417,490.107491 1670.85792,495.310646 1678.71697,496.812784 C1685.30844,498.071751 1692.10686,496.543744 1698.80698,496.924883 C1703.18146,497.17409 1707.50765,498.249386 1711.49065,500.076612 C1712.47712,500.529323 1713.4774,501.056192 1714.12844,501.923672 C1714.96315,503.035185 1715.08819,504.523525 1714.99161,505.909251 C1714.33022,515.370475 1704.88452,522.158549 1695.51815,523.644303 C1686.15178,525.130918 1676.66986,522.757852 1667.27158,521.491986 C1653.02025,519.573355 1638.56886,520.205426 1624.18904,520.311489 C1622.74123,520.322699 1621.26151,520.323562 1619.89045,519.859641 C1618.11582,519.260338 1616.67663,517.933249 1615.4901,516.485437 C1610.25159,510.088849 1609.17198,501.191574 1609.23665,493.016912 C1609.24528,491.885566 1609.5376,490.75767 1610.16708,489.817756 C1612.23834,486.726388 1615.64359,488.006051 1617.60792,490.024709 C1619.0954,491.553578 1620.12499,493.498941 1621.71509,494.920021 C1624.96426,497.823406 1629.7604,497.950165 1634.11764,497.919122 C1635.44904,497.909637 1636.82959,497.889804 1638.03164,497.318095 C1640.07186,496.348001 1641.09456,494.062889 1641.80165,491.915747 C1643.23566,487.561963 1645.01029,482.352771 1644.43427,477.698905 C1643.87549,473.176109 1640.52974,469.797593 1638.70769,465.689567 C1637.58669,463.164734 1637.00291,460.439847 1636.42603,457.737379 C1635.16189,451.816785 1633.91931,445.521087 1635.9897,439.831591 C1637.97904,434.367157 1642.85366,430.298796 1648.2767,428.199081 C1653.69888,426.098503 1659.64535,425.75703 1665.45557,425.97778 C1678.50226,426.474469 1691.21438,429.662414 1703.92305,432.382128 C1710.43173,433.774753 1716.96801,435.092356 1723.58535,435.858084 C1730.36998,436.642783 1734.85828,438.35791 1737.31499,431.110227 C1739.98038,423.250306 1742.44399,415.3214 1744.70409,407.335583 C1745.8363,403.334482 1746.11224,398.709934 1747.68681,394.920099 C1747.98517,394.200073 1748.3482,393.423135 1748.13176,392.674653 C1747.46951,390.378332 1741.71706,390.90865 1739.94158,390.709457 C1730.31393,389.631575 1718.78576,386.078011 1709.00289,386.351362 C1706.42287,386.423796 1706.79108,390.875883 1706.21851,392.659132 C1705.38293,395.260709 1704.16363,397.931272 1702.9771,400.250875 C1702.54594,401.093348 1701.43357,401.297715 1700.72217,400.670818 C1692.69927,393.611118 1689.15519,383.899826 1684.38577,374.495514 C1681.17713,368.168774 1677.22346,361.972242 1674.38302,355.489424 C1671.9358,349.905129 1671.91424,343.834494 1667.82174,338.723605 C1666.31787,336.846364 1664.53204,335.209707 1663.02559,333.334191 C1660.9276,330.722266 1659.4039,327.686086 1657.29298,325.081921 C1653.82737,320.806607 1648.18099,319.876179 1643.97293,316.671849 C1638.93965,312.838036 1633.08114,309.882912 1627.67707,306.488013 C1627.14675,306.155163 1626.5302,305.804204 1625.90848,306.231908 C1625.38075,306.594077 1625.18501,307.291682 1625.34195,307.91168 C1627.13468,314.982591 1631.67559,321.812056 1638.94224,324.212716 C1640.15464,324.612827 1640.78154,322.824404 1639.6088,322.319954 C1631.1858,318.693957 1624.3684,310.841797 1615.45043,307.834073 C1614.66573,307.570207 1613.78101,307.630569 1613.0765,308.065171 C1611.25359,309.189618 1612.05295,311.41523 1613.02821,312.957034 C1616.53349,318.499938 1631.02196,331.20257 1627.80124,325.490654 C1624.79524,320.15729 1622.76451,321.040292 1619.30925,320.642769 C1615.0943,320.15729 1609.42291,310.797819 1605.48821,312.200791 C1603.85414,312.850108 1603.33244,315.097278 1604.07058,316.694269 C1605.10534,318.931953 1608.97796,320.864382 1610.94488,322.310469 C1614.37255,324.829265 1617.75883,330.807634 1621.6211,329.004552 C1623.8286,327.974096 1619.15921,325.137971 1616.79304,324.558501 C1613.5249,323.757419 1603.41522,319.284637 1600.46786,321.154979 C1599.42706,321.814643 1599.01833,323.307295 1599.5771,324.405873 C1600.40233,326.029596 1604.92081,326.780664 1606.54712,327.588645 C1609.93685,329.272729 1612.98079,331.599231 1615.96609,333.899002 C1618.35727,335.740888 1621.29428,337.438769 1623.30518,339.707496 C1624.69263,341.273444 1625.40058,343.152409 1627.39337,344.182003 C1629.02917,345.027063 1630.92883,345.075352 1632.57842,345.884195 C1634.39185,346.773233 1635.53699,348.946245 1637.57807,349.336007 C1638.19548,349.454143 1638.82841,349.439484 1639.45617,349.44552 C1644.08158,349.495534 1648.81909,350.388883 1652.0079,353.913128 C1655.70375,357.997873 1657.77414,362.407706 1659.44098,367.654839 C1662.1788,376.271003 1664.67432,384.985469 1667.21812,393.590422 C1670.42418,404.434785 1673.70266,415.441261 1679.78451,424.97578 C1685.9043,434.569799 1694.27901,439.977321 1705.02335,444.814859 C1708.95288,446.585173 1713.24026,447.524225 1717.54403,447.297438 C1728.5005,446.721418 1731.61256,439.588421 1733.86232,431.214566 C1736.7338,420.52973 1739.46731,409.781083 1736.3699,398.774607 C1735.31013,395.008054 1733.49584,391.277717 1730.35359,388.945179 C1727.1484,386.567801 1723.02399,385.946078 1719.17207,384.902688 C1709.71947,382.341638 1701.74314,377.273865 1696.33734,369.378589 C1692.99245,364.492763 1688.44982,360.556335 1684.8954,355.830897 C1683.0104,353.324173 1682.13084,350.557895 1680.58818,347.948556 C1679.03861,345.327146 1675.2436,345.370261 1673.25944,343.478361 C1672.52648,342.779031 1675.17203,343.001506 1676.18438,343.019614 C1677.31314,343.04031 1678.47984,342.778168 1679.37491,342.090048 C1681.18058,340.701735 1680.85722,328.870894 1679.98284,331.367271 C1679.07224,333.963675 1677.50026,337.595708 1677.70549,338.970224 C1678.14182,341.904652 1681.85059,343.457666 1684.16416,344.731292 C1687.76774,346.714596 1691.29716,348.853116 1695.03181,350.587213 C1700.29619,353.030989 1700.17374,348.498708 1702.58216,345.224531 C1703.36772,344.156134 1704.6974,343.378334 1705.99948,343.632714 C1706.92818,343.814661 1707.68011,344.469151 1708.50793,344.92876 C1709.33488,345.388369 1710.44898,345.627228 1711.17245,345.016715 C1711.64414,344.61833 1711.80884,343.973325 1711.94853,343.371435 L1715.18132,329.427944 C1715.87633,326.432293 1716.44891,323.40646 1716.79297,320.350447 C1717.09736,317.649704 1717.19566,314.883426 1716.55583,312.242182 C1715.78924,309.078381 1714.06722,307.767675 1712.03993,305.561896 C1710.38258,303.757952 1708.60192,303.57773 1706.22023,302.949108 C1703.67815,302.279096 1701.03001,301.552172 1699.08292,299.785307 C1696.43909,297.387234 1695.58886,293.687078 1693.17612,291.107058 C1690.57627,288.325258 1686.27854,288.557218 1682.71376,288.799526 C1678.94807,289.056494 1672.79121,289.96364 1670.01199,292.817011 C1667.66221,295.229743 1668.01058,299.755126 1670.46988,301.916928 C1672.28331,303.511332 1674.79952,303.913167 1677.24071,304.05286 C1679.41717,304.177895 1681.5988,304.203764 1683.77871,304.193416 C1687.59355,304.177032 1691.4084,304.161511 1695.22238,304.145127 C1696.54084,304.139091 1698.01366,304.070106 1698.92339,303.116396 C1699.58478,302.423964 1699.78225,301.422826 1699.9504,300.480326 C1700.58247,296.954356 1700.52211,293.350778 1701.48703,289.880858 C1702.32002,286.87917 1703.43843,285.931496 1705.39759,283.877483 C1707.36537,281.814846 1708.12851,278.767456 1708.80111,276.085684 C1709.81518,272.043193 1711.5924,265.894087 1708.41739,262.38019 C1706.97992,260.789235 1705.00179,259.816553 1703.09437,258.836973 C1698.65004,256.552724 1694.32817,254.029617 1690.15288,251.284896 C1686.22162,248.700564 1682.84828,245.4833 1678.28323,244.194152 C1669.56618,241.729681 1660.17653,241.087263 1651.4612,243.587951 C1647.59376,244.697739 1644.06089,246.848331 1641.46276,249.92159 C1638.35242,253.599326 1634.33063,256.501848 1629.85784,258.291996 C1626.78372,259.523369 1624.04676,260.371878 1621.96171,263.088143 C1620.51821,264.96797 1619.27821,266.516672 1617.56222,268.174025 C1613.26535,272.320855 1613.44988,278.157806 1610.40508,282.994481 C1607.63966,287.386206 1601.65612,290.361163 1599.71766,295.164208 C1597.57396,300.472565 1595.87005,307.053686 1594.79216,312.724211 C1593.7229,318.345585 1593.30813,325.634659 1596.3538,330.726577 C1599.60642,336.16428 1605.3649,339.60057 1610.73103,342.685902 C1614.03797,344.588149 1617.47254,345.971288 1622.54549,344.746813 C1626.85271,343.706872 1615.59789,339.287553 1612.04777,336.635962 C1609.64539,334.841502 1606.70751,333.030659 1604.94927,330.446328 C1604.44482,329.704745 1602.853,328.407836 1602.70382,327.551566 C1602.41322,325.883004 1603.85931,324.503314 1604.2577,322.986517 C1604.68195,321.37228 1604.23269,321.023908 1605.3968,319.644218 C1607.56033,317.078857 1613.60165,311.955896 1615.85917,311.887774 C1617.90542,311.825688 1624.62709,309.744943 1626.36723,310.334761 C1628.1065,310.924578 1630.2959,311.173785 1631.54279,309.824276 C1631.89375,309.445723 1632.13951,308.962832 1632.56117,308.666198 C1633.14151,308.258328 1633.91586,308.29282 1634.61691,308.396297 C1639.67175,309.145641 1644.23163,312.062822 1649.20455,313.23987 C1653.97741,314.370354 1657.34903,315.526706 1657.34299,309.162024 C1658.32257,308.544613 1659.64017,308.772262 1660.63959,309.356906 C1661.63986,309.940687 1662.41939,310.826275 1663.28256,311.598902 C1664.80798,312.963932 1666.63693,313.990939 1668.59264,314.595416 C1670.58112,315.21024 1672.74033,316.193269 1674.75554,316.57872 C1676.92683,316.992627 1679.42579,316.297608 1680.63043,314.44365 C1675.50575,311.39281 1670.23878,308.219524 1667.22502,302.869776 C1666.13938,300.943384 1665.45902,298.790206 1665.37624,296.580115 C1665.07098,288.476161 1672.14361,284.598371 1678.82907,283.489445 C1683.94772,282.640936 1689.23366,282.99017 1694.29367,281.840715 C1699.35369,280.692124 1704.47406,277.494692 1705.6925,272.451063 C1706.34871,269.730487 1705.18029,264.622186 1707.66114,263.013985 C1708.90114,262.210315 1712.1779,262.143055 1711.16642,259.741533 C1711.82263,258.367017 1712.15031,257.681483 1712.80739,256.306967 C1715.1451,255.575732 1717.64234,256.903683 1720.10853,256.945074 C1723.39996,257.000261 1726.24729,254.794482 1729.36711,253.743331 C1729.69048,253.63468 1730.03454,253.53724 1730.36911,253.601913 C1731.95662,253.910618 1731.10984,256.692418 1732.3369,257.746156 C1736.0612,255.875814 1740.37876,255.207527 1744.49455,255.864604 C1745.69488,256.056036 1746.89694,256.357843 1748.10848,256.265576 C1753.07881,255.886162 1754.37831,250.032827 1759.28741,249.625819 C1781.99366,247.74168 1804.02645,255.42569 1824.58555,264.225525 C1833.22586,267.923956 1840.29849,273.928194 1847.8178,279.474547 C1849.7761,280.919772 1851.73785,282.366722 1853.80221,283.655008 C1856.80734,285.530524 1860.01771,287.061979 1863.00043,288.971988 C1878.01145,298.584115 1888.63334,317.18061 1897.30555,332.282178 C1907.24881,349.595561 1915.41743,367.837648 1924.06033,385.814145 C1938.11764,415.053223 1950.07524,445.302062 1959.80206,476.252817 C1944.94193,476.378714 1929.95074,479.874503 1915.92447,484.627535 C1913.69023,485.38464 1906.34252,491.270742 1904.61877,490.931855 C1899.90541,490.006601 1899.99509,477.847221 1899.47253,474.377301 C1898.00316,464.610822 1897.15896,455.067679 1895.38347,445.419335 C1894.4884,440.551617 1894.12537,435.601979 1893.30273,430.723913 C1892.40593,425.40176 1890.40366,420.020969 1889.38527,414.693642 C1889.26455,414.063296 1888.86185,413.492449 1888.25479,413.283771 C1886.74748,412.765525 1885.98606,414.95492 1885.99727,416.505347 C1886.07229,426.45636 1884.63052,435.74426 1884.30801,445.636636 C1884.1459,450.594035 1883.83892,455.584201 1882.94816,460.470027 C1882.66446,462.028215 1880.90363,466.088814 1879.93698,469.160349 C1879.6826,469.966605 1878.53056,469.95712 1878.30722,469.141378 C1875.73152,459.747415 1875.3978,449.817959 1875.36331,440.041132 C1875.31933,427.569597 1875.71772,415.097201 1876.55761,402.654123 C1876.76628,399.562755 1877.93471,359.715586 1874.39925,360.871939 C1868.30016,362.866453 1867.54823,380.851573 1866.35825,386.384992 C1864.36546,395.658233 1861.98636,405.110833 1856.177,412.820712 C1853.09857,416.906319 1848.43608,421.033317 1842.99492,420.986752 C1837.1985,420.937601 1837.54256,418.39121 1834.89183,414.776423 C1828.39694,405.917089 1822.50222,413.125107 1816.63767,419.394935 C1812.96856,423.315841 1809.23822,427.178973 1805.44839,430.981743 C1803.93935,432.496815 1802.02934,434.138646 1799.8572,433.280651 C1798.46802,432.732224 1797.65745,431.316318 1797.58588,429.82539 C1797.45912,427.15569 1799.15442,425.055113 1800.82557,423.158039 C1805.67949,417.646178 1810.96542,412.513731 1816.61784,407.82451 C1818.66064,406.130079 1820.81727,404.413227 1821.98483,402.028951 C1824.34928,397.202623 1821.89429,391.378607 1818.62098,387.115365 C1815.34594,382.852986 1811.14651,379.083846 1809.39689,374.001413 C1807.88009,369.592441 1808.3923,364.641942 1806.61595,360.331273 C1806.04597,358.948996 1805.22074,357.632255 1804.02558,356.734594 C1801.26707,354.664197 1797.11506,355.395432 1794.49193,357.636566 C1791.86965,359.876838 1790.51238,363.259665 1789.68457,366.608 C1788.85676,369.956335 1788.45492,373.422805 1787.27011,376.661627 C1786.87086,377.752445 1786.3621,378.844124 1785.50238,379.626236 C1783.78467,381.188735 1781.1874,381.127511 1778.87039,380.973158 C1771.36315,380.47647 1763.04017,378.851023 1755.59588,379.91942 C1746.40111,381.237886 1737.06578,380.494578 1727.83135,380.125511 C1724.68048,379.999615 1722.31,379.945289 1719.33332,380.806733 C1716.44804,381.640583 1713.28769,382.560664 1710.32739,383.080635 C1708.72954,383.360884 1706.98596,383.272929 1705.62696,382.387341 C1706.21851,373.29001 1710.0618,364.998936 1710.54211,355.825723 C1711.03362,346.429173 1711.1371,337.260271 1712.75306,327.937879 C1713.36012,324.435191 1714.0905,320.954924 1714.82087,317.475518 C1718.71677,298.908342 1726.63619,278.6269 1748.73882,278.300949 C1760.6947,278.126763 1775.4341,286.416112 1783.55443,294.770997 C1790.88404,302.311002 1795.89662,311.817927 1795.60171,322.483793 C1795.29301,333.686874 1792.98289,343.197249 1788.36179,353.363839 C1787.41929,355.436823 1785.94389,357.459793 1785.10572,359.516394 C1783.96058,362.328374 1783.98214,365.843996 1783.58634,368.85172 C1783.04912,372.842473 1783.22072,376.895312 1782.4274,380.863645 C1781.79447,384.030896 1782.10576,386.509164 1782.62832,389.677277 C1777.63384,391.906338 1771.68651,390.247261 1766.42558,390.075662 C1760.37909,389.878194 1754.32398,389.937693 1748.28266,390.255884 C1747.50572,390.297275 1746.69516,390.3516 1746.02428,390.744812 C1745.14387,391.260471 1744.67046,392.256435 1744.3471,393.223942 C1741.46182,401.856489 1747.45226,409.89577 1748.04984,418.378276 C1748.23092,420.941912 1747.9455,423.609025 1747.02628,426.019171 C1746.27176,427.995577 1742.94326,430.435041 1742.63456,432.011337 C1742.09389,434.762093 1745.92857,436.067625 1747.88169,436.704869 C1754.19808,438.767505 1760.92493,438.361359 1767.4112,439.352149 C1778.71172,441.075899 1790.01225,442.800511 1801.31191,444.524261 C1806.57111,445.326206 1811.91568,446.154882 1816.72132,448.435682 C1827.76401,453.675917 1829.89649,466.443222 1832.52135,477.118573 C1833.84844,482.516609 1835.20485,488.232837 1838.40918,492.879805 C1842.67587,499.069439 1851.09025,501.305399 1856.35722,506.511141 C1862.41061,512.493821 1871.2984,517.352054 1879.99303,516.874337 C1881.59606,516.785519 1883.28273,516.491473 1884.08554,514.469365 C1884.59516,513.184529 1884.46754,511.715159 1883.81391,510.49672 C1882.33937,507.750275 1879.02466,506.605995 1875.96089,506.659458 C1873.07044,506.711196 1870.28002,507.637313 1867.46545,508.298702 C1857.65154,510.601922 1849.21215,506.48441 1839.66815,507.921874 C1834.71506,508.668631 1830.0474,511.123617 1825.03826,511.179667 C1821.22256,511.22192 1817.0076,508.911802 1815.70035,505.64711 C1815.10536,504.163081 1813.36953,503.521526 1811.97432,504.301913 C1801.61285,510.102646 1790.64863,515.485162 1778.87556,515.292005 C1771.44679,515.17042 1764.24826,512.810288 1756.8833,511.825534 C1745.00849,510.239753 1733.14746,512.452431 1721.34594,510.458779 C1714.42507,509.289492 1707.57664,506.505105 1702.71323,501.442505 C1696.0821,494.541469 1695.11804,485.785612 1693.03729,476.943525 C1690.92809,467.983301 1684.41509,460.182879 1679.84573,452.047021 C1679.13347,450.778568 1677.80034,449.304025 1676.51464,449.984384 C1674.65293,455.027151 1678.33411,460.213922 1681.07452,464.83847 C1684.0969,469.939011 1686.15695,475.607812 1687.11497,481.460284 C1687.19517,481.949212 1687.26415,482.469183 1687.07186,482.927929 C1686.70452,483.802308 1685.50074,484.04979 1684.62205,483.690208 C1683.74336,483.330626 1683.11905,482.549377 1682.53613,481.800033 C1678.62384,476.776237 1674.70294,471.737782 1671.40979,466.288869 C1669.82832,463.672632 1668.32877,460.891695 1666.37996,458.571229 C1665.06236,457.00097 1662.46595,458.141801 1662.78673,460.164771 C1663.55418,465.005758 1666.74816,469.609611 1669.67224,473.772825 C1673.22753,478.835424 1676.57414,484.045478 1679.69828,489.38574 C1677.18638,490.392052 1674.4934,488.611389 1672.37471,486.928168 C1668.61419,483.942864 1664.85368,480.95756 1661.0923,477.972256 C1658.97102,476.288172 1656.99289,474.422141 1655.26742,472.33536 C1646.49087,461.723821 1652.57271,456.762111 1654.04036,448.829756 C1655.25449,442.271918 1655.04322,435.937417 1663.58609,435.100117 C1667.27331,434.738811 1670.93897,436.038306 1674.20108,437.795686 C1677.46318,439.553929 1680.45625,441.780403 1683.73301,443.510189 C1690.11063,446.877495 1697.64891,448.436545 1702.78394,453.501731 C1712.26155,462.851717 1728.97908,486.501326 1744.81016,481.784511 C1753.98682,479.049276 1757.12389,467.176182 1765.61674,462.559395 C1768.08552,461.215922 1770.99839,460.768385 1773.64309,461.718647 C1777.56399,463.127655 1778.27281,466.551011 1778.36076,469.754478 C1778.73156,483.365119 1761.35695,506.658596 1776.8569,516.772585 C1782.76974,520.62968 1790.2649,520.826286 1797.3246,520.896133 C1809.49433,521.01858 1821.66319,521.139303 1833.8312,521.261751 C1842.20505,521.344532 1850.6453,521.423002 1858.86826,519.843257 C1863.9412,518.869713 1868.88739,517.258925 1873.56885,515.078153 C1877.85883,513.079327 1882.10396,508.644487 1886.41894,507.219095 C1896.58035,503.862137 1909.62101,505.853202 1920.37311,503.051569 C1927.09565,501.2985 1933.14904,497.954477 1939.24209,494.722553 C1943.79162,492.310683 1954.16775,490.987905 1954.58855,485.0035 C1954.79033,482.154441 1953.55292,479.431278 1952.49056,476.781411 C1951.01429,473.102813 1946.45528,463.630379 1949.38885,459.796566 C1950.62108,458.185778 1952.95362,457.589925 1954.86967,458.253038 C1956.85556,458.941158 1958.22921,460.708024 1959.83914,462.060982 C1961.4482,463.413078 1963.84196,464.378861 1965.59589,463.220784 C1966.97644,462.309326 1967.73269,460.231169 1969.38573,460.234618 C1975.04159,460.245828 1980.6966,460.253588 1986.3516,460.258762 C1989.1791,460.260487 1992.00661,460.262212 1994.83411,460.262212 C2011.27829,461.144351 2025.07519,449.93437 2042.32131,452.521289 C2058.70513,455.108208 2075.08894,460.282045 2091.90391,460.096649 C2094.22093,460.090613 2096.53795,460.084576 2098.85583,460.079403 C2112.75965,460.045773 2126.66434,460.013867 2140.56816,459.994897" id="illustration-man"></path>
            </g>
        </g>
    </g>
</svg>