<?xml version="1.0" encoding="UTF-8"?>
<svg width="287px" height="68px" viewBox="0 0 287 68" version="1.1" xmlns="http://www.w3.org/2000/svg" xmlns:xlink="http://www.w3.org/1999/xlink">
    <!-- Generator: Sketch 51.2 (57519) - http://www.bohemiancoding.com/sketch -->
    <title>8vc-innovate-logo</title>
    <desc>Created with Sketch.</desc>
    <defs>
        <polygon id="path-1" points="0.0189581239 0.0318139293 31.9760356 0.0318139293 31.9760356 47.9808 0.0189581239 47.9808"></polygon>
    </defs>
    <g id="Design" stroke="none" stroke-width="1" fill="none" fill-rule="evenodd">
        <g id="Project-Examples-(1)" transform="translate(-45.000000, -2389.000000)">
            <g id="Footer" transform="translate(45.000000, 2389.000000)">
                <g id="8vc-innovate-logo">
                    <text id="SOCIAL-INNOVATOR’S-C" font-family="lato" font-size="20" font-weight="normal" letter-spacing="0.800000012" fill="#E7E7E7">
                        <tspan x="153" y="21">SOCIAL</tspan>
                        <tspan x="153" y="44">INNOVATOR’S</tspan>
                        <tspan x="153" y="67">CU</tspan>
                        <tspan x="182.969141" y="67">P</tspan>
                    </text>
                    <path d="M143.25,0.5 L143.25,58.5" id="Line-3" stroke="#979797" stroke-linecap="square"></path>
                    <g id="8vc-logo-white" transform="translate(0.000000, 6.000000)">
                        <g id="Group-3">
                            <mask id="mask-2" fill="white">
                                <use xlink:href="#path-1"></use>
                            </mask>
                            <g id="Clip-2"></g>
                            <path d="M15.9564209,23.968 C25.656661,23.968 30.0802232,29.76 30.0802232,35.104 C30.0802232,42.656 22.7497487,46.112 15.9564209,46.112 C6.25618088,46.112 1.83261864,40.416 1.83261864,35.104 C1.83261864,29.76 6.25618088,23.968 15.9564209,23.968 Z M27.8684421,11.904 C27.8684421,16.992 24.171608,22.144 15.9564209,22.144 C10.20579,22.144 4.04439976,18.976 4.04439976,12 C4.04439976,5.056 10.20579,1.92 15.9564209,1.92 C21.7070518,1.856 27.8684421,4.992 27.8684421,11.904 Z M21.7386487,22.976 C26.6993578,21.312 29.7958514,17.12 29.7958514,11.968 C29.7958514,6.208 25.4670798,0.032 15.9880178,0.032 C9.16309321,-4.30211422e-15 2.27497487,4.096 2.21178112,11.904 C2.21178112,16.608 4.99230596,20.736 9.44746507,22.656 L10.2689838,22.848 C4.01280289,24.512 0,29.312 0,35.04 C0,41.28 4.99230596,48 15.9564209,48 C26.9521328,48 31.9760356,41.28 31.9760356,35.072 C31.9760356,29.216 28.152814,24.704 21.7386487,22.976 Z" id="Fill-1" fill="#FFFFFE" mask="url(#mask-2)"></path>
                        </g>
                        <polyline id="Fill-4" fill="#FFFFFE" points="55.6838129 43.9398712 73.2330163 2 75.2005581 2 56.2867692 47 55.0173874 47 36.1353331 2 38.166344 2 55.6838129 43.9398712"></polyline>
                        <path d="M119.086116,36.5656985 C116.13358,41.6556017 109.129159,47 99.9260405,47 C87.3620564,47 77.1538193,37.329184 77.1538193,24 C77.1538193,10.670816 87.3620564,1 99.9260405,1 C109.286209,1.06362379 115.94512,6.63070539 119.148936,11.6887967 L117.075879,11.6887967 C115.411151,9.33471646 109.663128,2.68603043 99.9574505,2.62240664 C88.3357652,2.62240664 78.975597,11.6887967 78.975597,24 C78.975597,36.3112033 88.3357652,45.3775934 99.9574505,45.3775934 C110.228507,45.3775934 115.85089,38.2835408 117.075879,36.5656985 L119.086116,36.5656985" id="Fill-5" fill="#FFFFFE"></path>
                    </g>
                </g>
            </g>
        </g>
    </g>
</svg>