<?xml version="1.0" encoding="UTF-8"?>
<svg width="69px" height="61px" viewBox="0 0 69 61" version="1.1" xmlns="http://www.w3.org/2000/svg" xmlns:xlink="http://www.w3.org/1999/xlink">
    <!-- Generator: Sketch 51 (57462) - http://www.bohemiancoding.com/sketch -->
    <title>icon-people</title>
    <desc>Created with Sketch.</desc>
    <defs></defs>
    <g id="Design" stroke="none" stroke-width=".5" fill="none" fill-rule="evenodd">
        <g id="icon-people" transform="translate(1.000000, 1.000000)" stroke="#FFFFFF" stroke-width="2">
            <path d="M0.428571429,21.4285714 L0.428571429,30 C0.428571429,32.3571429 0.928571429,34.2857143 3.28571429,34.2857143 L3.28571429,47.1428571 L11.8571429,47.1428571 L11.8571429,34.2857143 C14.2114286,34.2857143 14.7114286,32.3542857 14.7142857,30 L14.7142857,21.4285714 L0.428571429,21.4285714 Z" id="Stroke-1"></path>
            <path d="M51.8571429,21.4285714 L51.8571429,30 C51.8571429,32.3571429 52.3571429,34.2857143 54.7142857,34.2857143 L54.7142857,47.1428571 L63.2857143,47.1428571 L63.2857143,34.2857143 C65.64,34.2857143 66.14,32.3542857 66.1428571,30 L66.1428571,21.4285714 L51.8571429,21.4285714 Z" id="Stroke-3"></path>
            <path d="M23.2857143,21.43 L43.2857143,21.43 L43.2857143,35.7157143 C43.2857143,38.8585714 40.7142857,41.43 37.5714286,41.43 L37.5714286,58.5728571 L29,58.5728571 L29,41.43 C25.8542857,41.43 23.2857143,38.8585714 23.2857143,35.7157143 L23.2857143,21.43 Z" id="Stroke-5"></path>
            <path d="M59,5.71428571 C55.8457143,5.71428571 53.2857143,8.27428571 53.2857143,11.4285714 C53.2857143,14.5828571 55.8457143,17.1428571 59,17.1428571 C62.1542857,17.1428571 64.7142857,14.5828571 64.7142857,11.4285714 C64.7142857,8.27428571 62.1542857,5.71428571 59,5.71428571" id="Fill-7"></path>
            <path d="M7.57142857,5.71428571 C4.41714286,5.71428571 1.85714286,8.27428571 1.85714286,11.4285714 C1.85714286,14.5828571 4.41714286,17.1428571 7.57142857,17.1428571 C10.7257143,17.1428571 13.2857143,14.5828571 13.2857143,11.4285714 C13.2857143,8.27428571 10.7257143,5.71428571 7.57142857,5.71428571" id="Fill-9"></path>
            <path d="M33.2857143,0 C28.5514286,0 24.7142857,3.83714286 24.7142857,8.57142857 C24.7142857,13.3057143 28.5514286,17.1428571 33.2857143,17.1428571 C38.02,17.1428571 41.8571429,13.3057143 41.8571429,8.57142857 C41.8571429,3.83714286 38.02,0 33.2857143,0" id="Fill-11"></path>
        </g>
    </g>
</svg>