<?xml version="1.0" encoding="UTF-8"?>
<svg width="514px" height="47px" viewBox="0 0 514 47" version="1.1" xmlns="http://www.w3.org/2000/svg" xmlns:xlink="http://www.w3.org/1999/xlink">
    <!-- Generator: Sketch 49 (51002) - http://www.bohemiancoding.com/sketch -->
    <title>Group 5 Copy</title>
    <desc>Created with Sketch.</desc>
    <defs>
        <polygon id="path-1" points="0.0190935391 0.0311511391 32.2044359 0.0311511391 32.2044359 46.9812 0.0190935391 46.9812"></polygon>
    </defs>
    <g id="Design" stroke="none" stroke-width="1" fill="none" fill-rule="evenodd">
        <g id="Group-5-Copy">
            <text id="|-SOCIAL-INNOVATOR’S" font-family="ITCAvantGardeStd-XLt, ITC Avant Garde Gothic Std" font-size="28" font-weight="300" fill="#6D01DB">
                <tspan x="143" y="34">| SOCIAL INNOVATOR’S CUP</tspan>
            </text>
            <g id="8vc-logo-white">
                <g id="Group-3">
                    <mask id="mask-2" fill="white">
                        <use xlink:href="#path-1"></use>
                    </mask>
                    <g id="Clip-2"></g>
                    <path d="M16.0703954,23.4686667 C25.8399229,23.4686667 30.295082,29.14 30.295082,34.3726667 C30.295082,41.7673333 22.9122469,45.1513333 16.0703954,45.1513333 C6.30086789,45.1513333 1.84570878,39.574 1.84570878,34.3726667 C1.84570878,29.14 6.30086789,23.4686667 16.0703954,23.4686667 Z M28.0675024,11.656 C28.0675024,16.638 24.3442623,21.6826667 16.0703954,21.6826667 C10.2786885,21.6826667 4.07328833,18.5806667 4.07328833,11.75 C4.07328833,4.95066667 10.2786885,1.88 16.0703954,1.88 C21.8621022,1.81733333 28.0675024,4.888 28.0675024,11.656 Z M21.8939248,22.4973333 C26.8900675,20.868 30.0086789,16.7633333 30.0086789,11.7186667 C30.0086789,6.07866667 25.6489875,0.0313333333 16.1022179,0.0313333333 C9.22854388,2.69576028e-15 2.29122469,4.01066667 2.22757956,11.656 C2.22757956,16.262 5.02796528,20.304 9.51494696,22.184 L10.3423337,22.372 C4.04146577,24.0013333 0,28.7013333 0,34.31 C0,40.42 5.02796528,47 16.0703954,47 C27.144648,47 32.2044359,40.42 32.2044359,34.3413333 C32.2044359,28.6073333 28.3539055,24.1893333 21.8939248,22.4973333 Z" id="Fill-1" fill="#6D01DB" mask="url(#mask-2)"></path>
                </g>
                <polyline id="Fill-4" fill="#6D01DB" points="56.0815544 43.0244572 73.7561093 1.95833333 75.7377049 1.95833333 56.6888176 46.0208333 55.4103688 46.0208333 36.3934426 1.95833333 38.4389607 1.95833333 56.0815544 43.0244572"></polyline>
                <path d="M119.936731,35.8039131 C116.963106,40.7877766 109.908653,46.0208333 100.639798,46.0208333 C87.9860711,46.0208333 77.704918,36.5514926 77.704918,23.5 C77.704918,10.4485074 87.9860711,0.979166667 100.639798,0.979166667 C110.066824,1.04146496 116.7733,6.4925657 120,11.4452801 L117.912135,11.4452801 C116.235516,9.1402432 110.446436,2.63007146 100.671432,2.56777317 C88.9667349,2.56777317 79.5397084,11.4452801 79.5397084,23.5 C79.5397084,35.5547199 88.9667349,44.4322268 100.671432,44.4322268 C111.015854,44.4322268 116.678397,37.485967 117.912135,35.8039131 L119.936731,35.8039131" id="Fill-5" fill="#6D01DB"></path>
            </g>
        </g>
    </g>
</svg>